<svg width="60" height="64" viewBox="0 0 60 64" fill="none" xmlns="http://www.w3.org/2000/svg">
<path d="M20.5278 10.3144C20.4586 10.2793 20.3932 10.237 20.3327 10.1882C20.1697 10.0455 20.0331 9.87511 19.9293 9.68495C18.3756 7.11452 18.713 3.83106 20.5498 1.50124C20.5979 1.42897 20.6656 1.37196 20.745 1.33692C20.7982 1.32544 20.8532 1.32485 20.9066 1.33519C20.9601 1.34553 21.0109 1.36658 21.056 1.39707C21.5079 1.64208 21.7969 2.11744 21.9363 2.61333C22.0491 3.11463 22.094 3.62882 22.0698 4.14209C22.0698 6.22446 22.0659 8.30682 22.058 10.3892C21.5431 10.4699 20.9738 10.5403 20.5278 10.3144Z" fill="#EB343A"/>
<path d="M20.5278 10.3144C20.4586 10.2793 20.3932 10.237 20.3327 10.1882C20.1697 10.0455 20.0331 9.87511 19.9293 9.68495C18.3756 7.11452 18.713 3.83106 20.5498 1.50124C20.5979 1.42897 20.6656 1.37196 20.745 1.33692C20.7982 1.32544 20.8532 1.32485 20.9066 1.33519C20.9601 1.34553 21.0109 1.36658 21.056 1.39707C21.5079 1.64208 21.7969 2.11744 21.9363 2.61333C22.0491 3.11463 22.094 3.62882 22.0698 4.14209C22.0698 6.22446 22.0659 8.30682 22.058 10.3892C21.5431 10.4699 20.9738 10.5403 20.5278 10.3144Z" fill="black" fill-opacity="0.16"/>
<path d="M20.8361 9.7466C20.8199 9.71918 20.8067 9.69018 20.7965 9.66004C20.7769 9.58792 20.7689 9.51312 20.773 9.4385C20.773 7.55762 21.0063 5.50069 21.8998 3.81788C22.7492 2.21723 24.4907 0.632714 26.2087 0.00624439C26.5681 -0.125798 26.7955 1.87832 26.7955 2.03823C26.7622 3.14014 26.5129 4.22479 26.062 5.23073C25.6315 6.19051 25.119 7.11138 24.5303 7.98309C24.03 8.74894 23.5165 9.53826 22.6362 9.91092C22.2548 10.0723 21.1222 10.2308 20.8361 9.7466Z" fill="#EB343A"/>
<path d="M20.8361 9.7466C20.8199 9.71918 20.8067 9.69018 20.7965 9.66004C20.7769 9.58792 20.7689 9.51312 20.773 9.4385C20.773 7.55762 21.0063 5.50069 21.8998 3.81788C22.7492 2.21723 24.4907 0.632714 26.2087 0.00624439C26.5681 -0.125798 26.7955 1.87832 26.7955 2.03823C26.7622 3.14014 26.5129 4.22479 26.062 5.23073C25.6315 6.19051 25.119 7.11138 24.5303 7.98309C24.03 8.74894 23.5165 9.53826 22.6362 9.91092C22.2548 10.0723 21.1222 10.2308 20.8361 9.7466Z" fill="black" fill-opacity="0.08"/>
<path d="M21.4624 10.1985C21.4543 10.1678 21.4494 10.1363 21.4478 10.1046C21.4486 10.0304 21.4605 9.95669 21.483 9.88597C21.9833 8.07845 22.755 6.1653 24.0622 4.78326C25.3033 3.47163 27.3969 2.41236 29.2161 2.26564C29.5961 2.2363 29.2866 4.22281 29.2425 4.37686C28.9176 5.42715 28.3892 6.40325 27.6874 7.24952C27.0198 8.05698 26.2835 8.80508 25.4867 9.48544C24.8016 10.0899 24.0988 10.712 23.1525 10.8367C22.7388 10.8895 21.6091 10.7413 21.4624 10.1985Z" fill="#EB343A"/>
<path d="M21.9288 9.71283C21.9301 9.69006 21.9335 9.66746 21.9391 9.64535C21.9541 9.59281 21.9779 9.5432 22.0095 9.49863C22.7431 8.33959 23.6762 7.16294 24.8778 6.47045C26.0192 5.81171 27.7049 5.50801 29.0077 5.78676C29.2791 5.84398 28.6482 7.16881 28.5852 7.26711C28.1385 7.93362 27.5652 8.50588 26.898 8.95139C26.2608 9.37606 25.5884 9.74518 24.888 10.0547C24.2836 10.3334 23.6615 10.621 22.9808 10.511C22.6771 10.4625 21.9171 10.1222 21.9288 9.71283Z" fill="#EB343A"/>
<path d="M21.9288 9.71283C21.9301 9.69006 21.9335 9.66746 21.9391 9.64535C21.9541 9.59281 21.9779 9.5432 22.0095 9.49863C22.7431 8.33959 23.6762 7.16294 24.8778 6.47045C26.0192 5.81171 27.7049 5.50801 29.0077 5.78676C29.2791 5.84398 28.6482 7.16881 28.5852 7.26711C28.1385 7.93362 27.5652 8.50588 26.898 8.95139C26.2608 9.37606 25.5884 9.74518 24.888 10.0547C24.2836 10.3334 23.6615 10.621 22.9808 10.511C22.6771 10.4625 21.9171 10.1222 21.9288 9.71283Z" fill="white" fill-opacity="0.08"/>
<path d="M46.363 45.6791L46.3623 45.6786C45.7991 45.306 45.1066 44.9412 44.4627 44.6174C44.2928 44.532 44.124 44.4483 43.9614 44.3678C43.5276 44.1528 43.1389 43.9602 42.897 43.8165L42.8968 43.8164L37.3006 40.4894L37.2998 40.489L37.2645 40.4681C36.4242 39.9706 35.6332 39.5023 34.7787 39.191L46.363 45.6791ZM46.363 45.6791C46.7082 45.9067 46.9834 46.1236 47.1664 46.3206M46.363 45.6791L47.1664 46.3206M29.9304 38.7037L29.93 38.7037C29.4927 38.7314 29.2016 38.7737 29.0019 38.8349C28.8136 38.8926 28.7427 38.9561 28.7035 39.0097C28.6561 39.0746 28.606 39.193 28.5755 39.444C28.5448 39.6957 28.5396 40.0217 28.5396 40.4697L29.9304 38.7037ZM29.9304 38.7037C31.6035 38.5965 33.2645 38.6399 34.7786 39.191L29.9304 38.7037ZM47.1664 46.3206C47.3612 46.5304 47.3842 46.645 47.3838 46.6739M47.1664 46.3206L47.3838 46.6739M47.3838 46.6739C47.3821 46.7886 47.2981 47.0052 47.0291 47.3222C46.7749 47.6216 46.416 47.9407 46.0122 48.252C45.2066 48.873 44.2885 49.4127 43.8581 49.6434C42.2726 50.4914 40.4945 50.9142 38.697 50.8706C36.8994 50.8271 35.1438 50.3187 33.6011 49.3948C32.0584 48.471 30.7813 47.1634 29.8943 45.5992C29.0073 44.0352 28.5406 42.268 28.5396 40.47L47.3838 46.6739Z" fill="white" stroke="white"/>
<path d="M28.4899 61.6364C28.4899 61.6364 27.5539 59.6573 25.494 59.6338C23.4342 59.6103 23.3491 60.6608 23.3491 60.6608C23.3491 60.6608 25.5498 60.4187 26.9304 61.7274" fill="#F58727"/>
<path d="M28.4899 61.6364C28.4899 61.6364 27.5539 59.6573 25.494 59.6338C23.4342 59.6103 23.3491 60.6608 23.3491 60.6608C23.3491 60.6608 25.5498 60.4187 26.9304 61.7274" fill="black" fill-opacity="0.08"/>
<path d="M38.1349 61.6012C38.1349 61.6012 37.1989 59.6221 35.1391 59.5971C33.0792 59.5722 32.9941 60.6241 32.9941 60.6241C32.9941 60.6241 35.1875 60.3835 36.5754 61.6922" fill="#F58727"/>
<path d="M38.1349 61.6012C38.1349 61.6012 37.1989 59.6221 35.1391 59.5971C33.0792 59.5722 32.9941 60.6241 32.9941 60.6241C32.9941 60.6241 35.1875 60.3835 36.5754 61.6922" fill="black" fill-opacity="0.08"/>
<path d="M40.7199 34.8054C40.6927 34.7592 40.6711 34.7099 40.6553 34.6587C40.623 34.5348 40.6111 34.4064 40.6201 34.2787C40.673 31.051 41.1336 27.5298 42.7152 24.6572C44.219 21.9327 47.253 19.2625 50.2224 18.234C50.843 18.0198 51.1849 21.4617 51.1775 21.7405C51.1232 23.6302 50.5907 25.4861 49.8263 27.2041C49.0854 28.8532 48.1244 30.3893 47.1136 31.8843C46.2333 33.1871 45.3281 34.5252 43.8052 35.1428C43.1465 35.4069 41.1967 35.6461 40.7199 34.8054Z" fill="#EB343A"/>
<path d="M40.7199 34.8054C40.6927 34.7592 40.6711 34.7099 40.6553 34.6587C40.623 34.5348 40.6111 34.4064 40.6201 34.2787C40.673 31.051 41.1336 27.5298 42.7152 24.6572C44.219 21.9327 47.253 19.2625 50.2224 18.234C50.843 18.0198 51.1849 21.4617 51.1775 21.7405C51.1232 23.6302 50.5907 25.4861 49.8263 27.2041C49.0854 28.8532 48.1244 30.3893 47.1136 31.8843C46.2333 33.1871 45.3281 34.5252 43.8052 35.1428C43.1465 35.4069 41.1967 35.6461 40.7199 34.8054Z" fill="black" fill-opacity="0.08"/>
<path d="M41.9346 34.3888C41.9072 34.336 41.8974 34.2758 41.9068 34.2171C42.6066 30.2676 44.973 26.8462 48.2829 24.6293C50.2371 23.3192 52.6842 21.7728 55.1182 21.5615C55.3456 21.5425 55.6419 23.1871 55.661 23.3221C55.9016 25.0225 55.4556 26.7449 54.678 28.2546C53.7168 30.084 52.3598 31.6762 50.7059 32.9152C49.052 34.1542 47.1426 35.0089 45.1168 35.4172C44.1309 35.6109 42.4423 35.5096 41.9346 34.3888Z" fill="#EB343A"/>
<path d="M42.8338 35.5815C42.8275 35.5268 42.8383 35.4714 42.8646 35.423C44.7351 32.1851 47.8953 29.9403 51.5015 29.0512C53.6317 28.526 56.2726 27.9524 58.4674 28.5407C58.6728 28.595 58.4087 30.1311 58.3823 30.2558C58.0522 31.8227 57.1117 33.19 55.9513 34.264C54.5264 35.5602 52.8305 36.5225 50.987 37.0809C49.1435 37.6392 47.1987 37.7796 45.2941 37.4917C44.3698 37.3523 42.9218 36.7259 42.8338 35.5815Z" fill="#EB343A"/>
<path d="M42.8338 35.5815C42.8275 35.5268 42.8383 35.4714 42.8646 35.423C44.7351 32.1851 47.8953 29.9403 51.5015 29.0512C53.6317 28.526 56.2726 27.9524 58.4674 28.5407C58.6728 28.595 58.4087 30.1311 58.3823 30.2558C58.0522 31.8227 57.1117 33.19 55.9513 34.264C54.5264 35.5602 52.8305 36.5225 50.987 37.0809C49.1435 37.6392 47.1987 37.7796 45.2941 37.4917C44.3698 37.3523 42.9218 36.7259 42.8338 35.5815Z" fill="white" fill-opacity="0.08"/>
<path d="M30.2973 54.6279C30.2973 54.6279 29.8264 61.2403 28.2624 61.2183C26.6985 61.1963 23.7261 60.2133 22.4424 61.8609C22.2011 62.1568 22.0505 62.5162 22.0089 62.8958C21.9672 63.2753 22.0363 63.6588 22.2076 64C22.2076 64 24.1545 62.37 27.8223 63.1226C27.8223 63.1226 28.6145 64.2788 29.9613 63.5305C31.3082 62.7823 31.6955 58.3735 31.6955 58.3735L32.0168 54.4357" fill="#F58727"/>
<path d="M27.5288 50.6241L28.7832 54.0894C28.7832 54.0894 29.0487 54.9213 30.2342 54.9565L31.9668 55.0093C31.9668 55.0093 32.9938 54.9389 33.0995 53.3823C33.2051 51.8256 33.0628 51.6672 33.0628 51.6672" fill="#EB343A"/>
<path d="M27.5288 50.6241L28.7832 54.0894C28.7832 54.0894 29.0487 54.9213 30.2342 54.9565L31.9668 55.0093C31.9668 55.0093 32.9938 54.9389 33.0995 53.3823C33.2051 51.8256 33.0628 51.6672 33.0628 51.6672" fill="black" fill-opacity="0.08"/>
<path d="M39.9689 54.5032C39.9689 54.5032 39.4979 61.1142 37.9355 61.0936C36.373 61.0731 33.3991 60.0872 32.1154 61.7348C31.874 62.0309 31.7234 62.3906 31.6817 62.7704C31.6401 63.1502 31.7092 63.5339 31.8807 63.8753C31.8807 63.8753 33.8275 62.2483 37.4865 62.9951C37.4865 62.9951 38.2788 64.1497 39.6256 63.4014C40.9724 62.6532 41.3597 58.2444 41.3597 58.2444L41.6796 54.3066" fill="#F58727"/>
<path d="M12.7109 14.1568C13.1881 12.4666 14.2852 11.0186 15.783 10.1016C18.5031 8.42764 22.2677 8.05939 25.1917 9.38862C29.169 11.1976 31.622 15.866 30.8547 20.1677C30.3838 22.8086 28.8419 25.4245 29.5343 28.0184C29.6133 28.3973 29.8057 28.7432 30.086 29.0102C30.6215 29.4503 31.4064 29.3461 32.0959 29.264C36.7174 28.7109 41.5632 30.7018 44.4608 34.3462C45.4614 35.605 46.2345 37.0325 47.2102 38.3074C48.1858 39.5824 49.4241 40.7561 50.9704 41.2006C50.4217 42.1543 48.8049 42.1792 48.2269 41.2432C48.5661 41.7117 49.0055 42.0988 49.513 42.3761C50.0206 42.6535 50.5836 42.8143 51.1611 42.8468C51.3269 43.2869 50.8178 43.7271 50.3527 43.6933C49.8877 43.6596 49.5179 43.3001 49.2084 42.9524C49.493 43.4713 49.9212 43.8973 50.4415 44.1793C50.9619 44.4614 51.5524 44.5876 52.1426 44.5428C52.1089 45.806 50.8486 46.6701 49.6573 47.0986C47.6708 47.813 45.5171 47.9334 43.4074 47.8497C40.3954 47.7294 37.3423 47.1866 34.6986 45.7385C32.0548 44.2904 29.8571 41.8403 29.213 38.8958C29.0927 42.6531 32.1077 45.9468 35.6053 47.3245C39.1029 48.7021 42.9922 48.5642 46.7422 48.3119C44.0603 51.5851 39.3948 52.4199 35.1637 52.3421C29.6796 52.2467 23.8155 50.7708 20.3018 46.5586C18.0013 43.7975 16.9699 40.1032 17.1225 36.5102C17.2751 32.9172 18.5486 29.4356 20.4118 26.362C20.5585 26.1243 20.8901 25.6284 20.7434 25.335C20.5967 25.0416 20.2812 25.1325 19.9951 25.1076C17.8467 24.9187 15.832 23.9845 14.2998 22.4667C13.5193 21.6847 12.8738 20.7428 12.573 19.6791C12.3353 18.8355 12.3192 17.9494 12.3148 17.0735C12.3022 16.0871 12.4357 15.1042 12.7109 14.1568Z" fill="#EB343A"/>
<path d="M42.1708 50.0651C42.257 50.054 42.3445 50.0652 42.4252 50.0976C42.5058 50.1299 42.5768 50.1824 42.6315 50.2499C42.7972 50.4656 42.8589 50.8837 42.9249 51.1434C43.0585 51.6281 43.1594 52.1212 43.2271 52.6194C43.2564 52.8527 43.3107 53.171 43.1846 53.3882C43.0378 54.6939 42.1444 54.936 42.1444 54.936L39.4669 54.8876C38.4472 54.245 37.853 53.0302 37.4129 51.9533C37.2085 51.4473 37.0302 50.9312 36.8789 50.4069C36.8231 50.2147 36.719 50.0255 36.7542 49.8201C38.387 50.177 40.0657 50.276 41.7292 50.1135C41.8744 50.0988 42.027 50.0695 42.1708 50.0651Z" fill="#EB343A"/>
<path d="M42.1708 50.0651C42.257 50.054 42.3445 50.0652 42.4252 50.0976C42.5058 50.1299 42.5768 50.1824 42.6315 50.2499C42.7972 50.4656 42.8589 50.8837 42.9249 51.1434C43.0585 51.6281 43.1594 52.1212 43.2271 52.6194C43.2564 52.8527 43.3107 53.171 43.1846 53.3882C43.0378 54.6939 42.1444 54.936 42.1444 54.936L39.4669 54.8876C38.4472 54.245 37.853 53.0302 37.4129 51.9533C37.2085 51.4473 37.0302 50.9312 36.8789 50.4069C36.8231 50.2147 36.719 50.0255 36.7542 49.8201C38.387 50.177 40.0657 50.276 41.7292 50.1135C41.8744 50.0988 42.027 50.0695 42.1708 50.0651Z" fill="white" fill-opacity="0.08"/>
<path d="M11.9557 15.175C11.922 15.2249 11.8882 15.2733 11.8501 15.3217C11.4895 15.7594 11.0788 16.1533 10.6265 16.4954C9.62595 17.2818 8.49773 17.7601 7.2947 18.1372C6.48191 18.391 5.78503 19.06 5.28915 19.7437C4.24309 21.1888 3.80589 23.0638 3.75161 24.8229C3.72581 25.5353 3.79939 26.2479 3.97021 26.94C4.15213 27.6736 4.19761 27.8672 4.9297 27.4491C5.06468 27.3713 5.20699 27.3024 5.34637 27.2422C7.6204 26.1624 10.0294 25.3129 12.3885 24.4444C13.0531 24.1994 13.6913 23.8898 14.3633 23.6639C15.179 23.391 16.0358 23.4467 16.8383 23.1577C17.6105 22.8757 18.2818 22.3713 18.7676 21.7082C19.0392 21.3575 19.2247 20.9479 19.3089 20.5125C19.4058 19.908 19.2297 19.2933 19.0155 18.7196C18.0868 16.2577 16.5493 14.0248 13.7016 13.7445C13.3642 13.7108 12.9871 13.7211 12.7392 13.9514C12.3797 14.2874 12.2213 14.7715 11.9557 15.175Z" fill="#F58727"/>
<path fill-rule="evenodd" clip-rule="evenodd" d="M7.60002 25.316C8.69681 24.2485 9.82515 23.9271 11.0967 23.5649C11.4882 23.4534 11.8932 23.338 12.315 23.1958C13.1977 22.8983 14.1181 22.4866 15.0622 21.7358C16.0048 20.9862 16.9575 19.9093 17.9222 18.2966L17.3501 17.9543C16.4179 19.5128 15.5151 20.5239 14.6472 21.214C13.7809 21.903 12.936 22.283 12.1021 22.564C11.7387 22.6866 11.3699 22.791 10.9988 22.8961C9.69499 23.2654 8.36273 23.6428 7.13381 24.8394L7.13155 24.8417C6.21439 25.7519 5.20888 26.5685 4.12988 27.2794L4.49667 27.8361C5.61218 27.1011 6.65175 26.2569 7.60002 25.316Z" fill="#F58727"/>
<path fill-rule="evenodd" clip-rule="evenodd" d="M7.60002 25.316C8.69681 24.2485 9.82515 23.9271 11.0967 23.5649C11.4882 23.4534 11.8932 23.338 12.315 23.1958C13.1977 22.8983 14.1181 22.4866 15.0622 21.7358C16.0048 20.9862 16.9575 19.9093 17.9222 18.2966L17.3501 17.9543C16.4179 19.5128 15.5151 20.5239 14.6472 21.214C13.7809 21.903 12.936 22.283 12.1021 22.564C11.7387 22.6866 11.3699 22.791 10.9988 22.8961C9.69499 23.2654 8.36273 23.6428 7.13381 24.8394L7.13155 24.8417C6.21439 25.7519 5.20888 26.5685 4.12988 27.2794L4.49667 27.8361C5.61218 27.1011 6.65175 26.2569 7.60002 25.316Z" fill="black" fill-opacity="0.16"/>
<path d="M20.7406 23.1739C24.0117 23.1739 26.6634 20.2804 26.6634 16.7111C26.6634 13.1418 24.0117 10.2484 20.7406 10.2484C17.4696 10.2484 14.8179 13.1418 14.8179 16.7111C14.8179 20.2804 17.4696 23.1739 20.7406 23.1739Z" fill="white" stroke="white" stroke-width="0.843395" stroke-miterlimit="10"/>
<path d="M20.2829 19.3197C21.9286 19.3197 23.2627 17.9942 23.2627 16.359C23.2627 14.7239 21.9286 13.3983 20.2829 13.3983C18.6373 13.3983 17.3032 14.7239 17.3032 16.359C17.3032 17.9942 18.6373 19.3197 20.2829 19.3197Z" fill="#EB343A"/>
<path d="M20.3242 18.6462C21.3492 18.6462 22.1801 17.5151 22.1801 16.1198C22.1801 14.7245 21.3492 13.5934 20.3242 13.5934C19.2992 13.5934 18.4683 14.7245 18.4683 16.1198C18.4683 17.5151 19.2992 18.6462 20.3242 18.6462Z" fill="black"/>
<path d="M19.1694 15.1418L19.1722 15.131L19.1744 15.1201C19.2538 14.7395 19.4758 14.3964 19.7653 14.1918C20.0426 13.996 20.383 13.923 20.7642 14.0617C21.036 14.1611 21.2744 14.3517 21.4617 14.5973C21.3997 14.5975 21.3356 14.5958 21.2694 14.5926C21.0735 14.5829 20.9017 14.5637 20.7157 14.5429C20.5847 14.5282 20.4466 14.5128 20.2883 14.4993C20.1486 14.4795 20.006 14.4996 19.8769 14.5575L19.8547 14.5675L19.8336 14.5795C19.6789 14.6679 19.6016 14.7972 19.5635 14.8792C19.5446 14.9198 19.5317 14.9567 19.524 14.98C19.5149 15.0069 19.5143 15.0093 19.5139 15.011C19.5136 15.012 19.5134 15.0128 19.5118 15.0176C19.4888 15.0746 19.4479 15.1227 19.3952 15.1546C19.3406 15.1876 19.2766 15.2014 19.2133 15.1937L19.204 15.1925L19.1947 15.1918C19.1842 15.1909 19.1741 15.187 19.1656 15.1806L19.1656 15.1806C19.165 15.1802 19.1644 15.1797 19.1638 15.1792C19.1644 15.1666 19.1663 15.154 19.1694 15.1418Z" fill="white" stroke="white"/>
<path d="M3.45059 19.2625C3.17381 19.4364 2.92039 19.6449 2.69649 19.8831C2.27839 20.349 1.95804 20.8941 1.75442 21.486C1.5508 22.078 1.46804 22.7048 1.51106 23.3294C1.61816 24.9652 2.5087 26.4837 3.72054 27.5841C4.47315 28.2569 5.45666 28.6128 6.46551 28.5773C6.17209 28.1372 5.87867 27.1498 6.02538 26.6436C6.19703 26.0172 6.90565 25.7428 7.42501 25.3526C8.38597 24.6263 8.77036 23.3176 8.64565 22.1249C8.52095 20.9321 7.96198 19.8229 7.33111 18.7959C7.25174 18.6362 7.12861 18.5024 6.97607 18.41C6.82842 18.3538 6.66872 18.3366 6.51246 18.3602C5.48695 18.4365 4.34846 18.6917 3.45059 19.2625Z" fill="#EB343A"/>
</svg>
