<svg width="54" height="64" viewBox="0 0 54 64" fill="none" xmlns="http://www.w3.org/2000/svg">
<path d="M9.34979 6.14587C9.3093 6.12462 9.27087 6.09964 9.23501 6.07127C9.13833 5.98545 9.05684 5.88392 8.99399 5.77095C8.55494 5.01587 8.35536 4.14534 8.42162 3.27441C8.48788 2.40348 8.81686 1.57315 9.36508 0.893184C9.39223 0.849035 9.4323 0.814307 9.47986 0.793715C9.51252 0.786136 9.5464 0.785454 9.57933 0.791712C9.61227 0.79797 9.64354 0.81103 9.67115 0.830059C9.80188 0.91004 9.91527 1.01539 10.0046 1.13991C10.094 1.26442 10.1575 1.40557 10.1914 1.55503C10.2583 1.85366 10.2853 2.15982 10.2718 2.46555C10.2718 3.70762 10.2718 4.94843 10.2718 6.18795C9.95616 6.23769 9.61567 6.27977 9.34979 6.14587Z" fill="#EB343A"/>
<path d="M9.34979 6.14587C9.3093 6.12462 9.27087 6.09964 9.23501 6.07127C9.13833 5.98545 9.05684 5.88392 8.99399 5.77095C8.55494 5.01587 8.35536 4.14534 8.42162 3.27441C8.48788 2.40348 8.81686 1.57315 9.36508 0.893184C9.39223 0.849035 9.4323 0.814307 9.47986 0.793715C9.51252 0.786136 9.5464 0.785454 9.57933 0.791712C9.61227 0.79797 9.64354 0.81103 9.67115 0.830059C9.80188 0.91004 9.91527 1.01539 10.0046 1.13991C10.094 1.26442 10.1575 1.40557 10.1914 1.55503C10.2583 1.85366 10.2853 2.15982 10.2718 2.46555C10.2718 3.70762 10.2718 4.94843 10.2718 6.18795C9.95616 6.23769 9.61567 6.27977 9.34979 6.14587Z" fill="black" fill-opacity="0.16"/>
<path d="M9.53537 5.8092C9.53537 5.79198 9.51816 5.77477 9.5105 5.75755C9.49945 5.71448 9.49494 5.66998 9.49711 5.62556C9.49711 4.50463 9.63675 3.2785 10.1685 2.27425C10.7426 1.24803 11.6485 0.447394 12.7375 0.00369911C12.9517 -0.0747277 13.0895 1.11889 13.0895 1.21453C13.0682 1.87136 12.9195 2.5178 12.6514 3.11782C12.3951 3.68991 12.0891 4.23844 11.7371 4.75713C11.4386 5.2143 11.1326 5.68486 10.6066 5.90484C10.3809 6.0024 9.70562 6.09613 9.53537 5.8092Z" fill="#EB343A"/>
<path d="M9.53537 5.8092C9.53537 5.79198 9.51816 5.77477 9.5105 5.75755C9.49945 5.71448 9.49494 5.66998 9.49711 5.62556C9.49711 4.50463 9.63675 3.2785 10.1685 2.27425C10.7426 1.24803 11.6485 0.447394 12.7375 0.00369911C12.9517 -0.0747277 13.0895 1.11889 13.0895 1.21453C13.0682 1.87136 12.9195 2.5178 12.6514 3.11782C12.3951 3.68991 12.0891 4.23844 11.7371 4.75713C11.4386 5.2143 11.1326 5.68486 10.6066 5.90484C10.3809 6.0024 9.70562 6.09613 9.53537 5.8092Z" fill="black" fill-opacity="0.08"/>
<path d="M9.90823 6.077C9.90624 6.05856 9.90624 6.03996 9.90823 6.02152C9.90767 5.97728 9.91479 5.93327 9.92927 5.89145C10.2258 4.8126 10.6944 3.67254 11.4596 2.85002C12.2836 2.0159 13.367 1.48702 14.5316 1.35034C14.7592 1.33313 14.5737 2.51718 14.5469 2.609C14.353 3.23465 14.0385 3.81626 13.6211 4.321C13.2215 4.80413 12.7812 5.2521 12.305 5.66C11.8976 6.01961 11.4787 6.3907 10.9144 6.46339C10.6695 6.49017 9.9924 6.40027 9.90823 6.077Z" fill="#EB343A"/>
<path d="M10.1858 5.78817C10.1848 5.7748 10.1848 5.76137 10.1858 5.748C10.1947 5.71708 10.2089 5.68796 10.2278 5.66192C10.662 4.96947 11.2206 4.26937 11.9398 3.85619C12.6902 3.44437 13.5584 3.30002 14.4017 3.44684C14.5643 3.48127 14.1874 4.27128 14.1511 4.33058C13.8844 4.72769 13.5426 5.06884 13.1449 5.33482C12.7652 5.58726 12.3646 5.80676 11.9475 5.99093C11.586 6.15735 11.2168 6.32951 10.7998 6.26447C10.6353 6.23769 10.18 6.03301 10.1858 5.78817Z" fill="#EB343A"/>
<path d="M10.1858 5.78817C10.1848 5.7748 10.1848 5.76137 10.1858 5.748C10.1947 5.71708 10.2089 5.68796 10.2278 5.66192C10.662 4.96947 11.2206 4.26937 11.9398 3.85619C12.6902 3.44437 13.5584 3.30002 14.4017 3.44684C14.5643 3.48127 14.1874 4.27128 14.1511 4.33058C13.8844 4.72769 13.5426 5.06884 13.1449 5.33482C12.7652 5.58726 12.3646 5.80676 11.9475 5.99093C11.586 6.15735 11.2168 6.32951 10.7998 6.26447C10.6353 6.23769 10.18 6.03301 10.1858 5.78817Z" fill="white" fill-opacity="0.08"/>
<path d="M24.7655 46.7155C25.2074 48.3854 24.0941 50.5641 23.6025 52.1518C22.7723 54.8298 22.1449 59.6004 18.7266 60.1513C17.994 60.268 17.2461 60.2317 16.5115 60.3426C15.4002 60.5014 14.6121 61.1613 13.8125 61.8977H17.2556C16.9525 62.124 16.718 62.4299 16.5785 62.7815C17.8958 62.6705 19.2112 62.543 20.5247 62.3989C22.4375 62.1828 22.9272 60.6601 23.394 58.9826C24.0632 56.5729 24.9183 54.2188 25.9514 51.9414C26.3837 50.9945 27.145 49.9807 27.4224 48.9937C27.6826 48.0621 27.1585 47.341 26.7893 46.5452C26.3523 45.5956 26.1678 44.5494 26.2537 43.5076C26.3417 42.2834 26.7625 41.1625 27.0456 39.9841C26.1332 39.4906 24.7023 39.6379 23.6981 39.7565C23.2333 39.812 20.3143 40.7474 20.0924 40.5523C21.8694 42.1208 23.3442 43.8462 24.4594 45.9484C24.5906 46.1915 24.6933 46.4488 24.7655 46.7155Z" fill="#F58727"/>
<path d="M31.223 46.595C32.2483 48.1769 32.0742 50.1988 31.9881 51.995C31.9052 53.6785 31.7019 55.354 31.3798 57.0085C31.1522 58.1792 30.9322 59.6617 29.6927 60.2011C28.6139 60.6697 27.4241 60.7118 26.3108 61.0619C25.1631 61.4253 24.7021 62.2096 23.9331 63.0723C25.0234 62.8568 26.1221 62.6948 27.229 62.5864C26.7406 62.9301 26.3551 63.4003 26.1138 63.9464C27.2615 63.3726 28.5316 63.122 29.7577 62.7586C30.6706 62.5222 31.5354 62.1286 32.3133 61.5956C33.6064 60.6391 32.7819 58.4317 32.8757 57.0047C33.0344 54.583 33.4706 51.9758 34.3256 49.6995C34.6126 48.9344 35.0238 48.2573 34.8344 47.4041C34.669 46.8142 34.4058 46.2562 34.0559 45.7533C32.8186 43.7456 31.7008 41.6665 30.7084 39.527C30.3756 38.8116 30.1843 38.6624 29.3197 38.6968C28.3407 38.7356 27.3665 38.8533 26.4064 39.0488C25.9591 39.1143 25.53 39.2712 25.1459 39.5098C24.7698 39.7944 24.4782 40.1759 24.3023 40.6135C23.9867 41.3366 24.3673 41.2352 24.9182 41.48C25.8747 41.9009 26.6666 42.9089 27.4967 43.5383C28.7191 44.4679 30.3756 45.2866 31.223 46.595Z" fill="#F58727"/>
<path d="M35.5043 28.4133C35.543 28.3741 35.586 28.3395 35.6325 28.31C35.743 28.2476 35.8644 28.2067 35.9902 28.1895C39.1196 27.5678 42.6297 27.3402 45.7802 28.5109C48.7757 29.6203 52.0926 32.4609 53.8142 35.5712C54.1719 36.2216 50.9353 37.3329 50.6675 37.3827C48.8312 37.7213 46.9145 37.5204 45.0686 37.0173C43.2835 36.4939 41.5507 35.8061 39.8924 34.9629C38.4214 34.2513 36.9084 33.5187 35.9405 31.9425C35.5158 31.2635 34.8119 29.1211 35.5043 28.4133Z" fill="#EB343A"/>
<path d="M35.5043 28.4133C35.543 28.3741 35.586 28.3395 35.6325 28.31C35.743 28.2476 35.8644 28.2067 35.9902 28.1895C39.1196 27.5678 42.6297 27.3402 45.7802 28.5109C48.7757 29.6203 52.0926 32.4609 53.8142 35.5712C54.1719 36.2216 50.9353 37.3329 50.6675 37.3827C48.8312 37.7213 46.9145 37.5204 45.0686 37.0173C43.2835 36.4939 41.5507 35.8061 39.8924 34.9629C38.4214 34.2513 36.9084 33.5187 35.9405 31.9425C35.5158 31.2635 34.8119 29.1211 35.5043 28.4133Z" fill="black" fill-opacity="0.16"/>
<path d="M36.2044 29.6835C36.2496 29.6412 36.3089 29.6174 36.3708 29.6165C40.3495 29.5687 44.2135 31.5007 47.1746 34.7411C48.9172 36.6539 51.0003 39.0813 51.8075 41.7612C51.8802 42.0099 50.3767 42.687 50.2409 42.7368C48.6628 43.3642 46.8896 43.2265 45.2464 42.6736C41.1931 41.2773 37.7863 37.8915 35.9844 33.469C35.5712 32.4036 35.248 30.4907 36.2044 29.6835Z" fill="#EB343A"/>
<path d="M35.2744 30.9441C35.3262 30.9249 35.3832 30.9249 35.435 30.9441C39.0082 32.3615 41.9521 35.4259 43.6928 39.2841C44.7219 41.5604 45.9232 44.401 45.8926 46.9872C45.8926 47.2282 44.347 47.255 44.2189 47.2511C42.6274 47.211 41.0799 46.4477 39.76 45.3727C36.5196 42.6947 34.4155 38.5534 34.0329 34.1041C33.943 33.0386 34.1936 31.2827 35.2744 30.9441Z" fill="#EB343A"/>
<path d="M35.2744 30.9441C35.3262 30.9249 35.3832 30.9249 35.435 30.9441C39.0082 32.3615 41.9521 35.4259 43.6928 39.2841C44.7219 41.5604 45.9232 44.401 45.8926 46.9872C45.8926 47.2282 44.347 47.255 44.2189 47.2511C42.6274 47.211 41.0799 46.4477 39.76 45.3727C36.5196 42.6947 34.4155 38.5534 34.0329 34.1041C33.943 33.0386 34.1936 31.2827 35.2744 30.9441Z" fill="white" fill-opacity="0.08"/>
<path d="M8.31885 14.0478C7.85211 17.3417 5.84362 20.2646 5.38645 23.5872C4.87954 27.2637 5.45913 31.0856 7.75073 34.0926C9.74009 36.7036 12.552 39.1195 15.6202 40.3208C16.4351 40.6383 25.6933 42.5282 25.678 41.3231C25.655 39.3854 23.8091 37.8169 22.6442 36.4129C21.2669 34.7506 19.8667 33.0921 18.786 31.2156C18.2121 30.2095 17.7167 29.1402 16.9764 28.245C15.5571 26.5234 13.5907 27.0035 11.9552 25.8004C11.2833 25.3032 10.795 24.5977 10.5664 23.7938C10.2413 22.6461 10.4823 21.4085 10.7252 20.234C11.3431 17.2557 11.9839 14.2831 12.5768 11.299C12.8006 10.1743 13.0436 9.04571 13.0646 7.89418C13.0934 7.29907 13.015 6.70364 12.8332 6.13627C12.4372 5.04212 10.8974 4.32671 9.82618 4.13734C9.41874 4.06465 9.20833 4.13734 9.02852 4.4893C8.90992 4.72267 8.82002 4.97325 8.69186 5.20088C8.4906 5.51549 8.34862 5.86427 8.27294 6.23C8.16965 6.95114 7.83107 7.58812 7.82342 8.35135C7.80811 9.91606 8.45657 11.4119 8.41066 12.9747C8.40051 13.3339 8.36986 13.6922 8.31885 14.0478Z" fill="#EB343A"/>
<path d="M16.726 32.4017C16.8021 32.8663 16.9075 33.3257 17.0416 33.777C17.7015 35.8964 18.7632 37.9241 20.456 39.3969C22.6367 41.2926 25.2994 41.855 28.1208 41.6159C30.4947 41.415 34.2209 41.174 36.3021 40.2443C35.7952 39.8426 34.7718 39.0125 34.1233 38.9053C36.0679 39.2156 38.0523 39.1747 39.9824 38.7848C39.0948 38.5209 38.2092 38.255 37.3044 38.0713C38.7148 37.8673 40.1214 37.6416 41.5242 37.3942C40.7592 36.8406 39.9184 36.3999 39.0279 36.0858C40.6255 36.0865 42.2142 36.3224 43.7431 36.7859C43.3168 36.1009 42.7446 35.5183 42.0674 35.0796C42.5552 35.0796 43.2878 35.2327 43.7545 35.0969C44.2653 34.9477 44.2136 34.8941 44.1371 34.2724C44.0185 33.3849 43.6474 32.5509 43.2878 31.7379C40.8929 26.3341 35.5236 23.1148 29.7506 22.5887C26.8265 22.331 23.8814 22.7128 21.1198 23.7078C20.0983 24.0731 14.3827 25.5173 14.6371 26.8927C14.6792 27.126 15.3621 27.6368 15.519 27.8797C16.3491 29.1785 16.4563 30.8408 16.726 32.4017Z" fill="#EB343A"/>
<path d="M16.726 32.4017C16.8021 32.8663 16.9075 33.3257 17.0416 33.777C17.7015 35.8964 18.7632 37.9241 20.456 39.3969C22.6367 41.2926 25.2994 41.855 28.1208 41.6159C30.4947 41.415 34.2209 41.174 36.3021 40.2443C35.7952 39.8426 34.7718 39.0125 34.1233 38.9053C36.0679 39.2156 38.0523 39.1747 39.9824 38.7848C39.0948 38.5209 38.2092 38.255 37.3044 38.0713C38.7148 37.8673 40.1214 37.6416 41.5242 37.3942C40.7592 36.8406 39.9184 36.3999 39.0279 36.0858C40.6255 36.0865 42.2142 36.3224 43.7431 36.7859C43.3168 36.1009 42.7446 35.5183 42.0674 35.0796C42.5552 35.0796 43.2878 35.2327 43.7545 35.0969C44.2653 34.9477 44.2136 34.8941 44.1371 34.2724C44.0185 33.3849 43.6474 32.5509 43.2878 31.7379C40.8929 26.3341 35.5236 23.1148 29.7506 22.5887C26.8265 22.331 23.8814 22.7128 21.1198 23.7078C20.0983 24.0731 14.3827 25.5173 14.6371 26.8927C14.6792 27.126 15.3621 27.6368 15.519 27.8797C16.3491 29.1785 16.4563 30.8408 16.726 32.4017Z" fill="black" fill-opacity="0.08"/>
<path d="M6.39433 4.60215C7.06383 4.14689 7.92461 4.02829 8.73948 3.99386C13.1199 3.84274 13.6153 11.0504 8.9805 10.7233C7.80412 10.6386 6.63984 10.4309 5.50676 10.1035C5.10698 9.98682 4.12186 9.8357 3.84067 9.52965C3.504 9.14708 4.13716 8.76451 4.37818 8.46228C4.64544 8.09163 4.84789 7.67833 4.9769 7.23997C5.26957 6.3524 5.45894 5.35581 6.22217 4.73605C6.27764 4.69396 6.33503 4.64232 6.39433 4.60215Z" fill="#EB343A"/>
<path d="M6.39433 4.60215C7.06383 4.14689 7.92461 4.02829 8.73948 3.99386C13.1199 3.84274 13.6153 11.0504 8.9805 10.7233C7.80412 10.6386 6.63984 10.4309 5.50676 10.1035C5.10698 9.98682 4.12186 9.8357 3.84067 9.52965C3.504 9.14708 4.13716 8.76451 4.37818 8.46228C4.64544 8.09163 4.84789 7.67833 4.9769 7.23997C5.26957 6.3524 5.45894 5.35581 6.22217 4.73605C6.27764 4.69396 6.33503 4.64232 6.39433 4.60215Z" fill="black" fill-opacity="0.08"/>
<path d="M1.78255 8.48721C2.78165 8.00437 3.83569 7.64467 4.92153 7.41602C4.84563 7.51172 4.80792 7.63217 4.81569 7.75407C4.82347 7.87597 4.87618 7.99066 4.96362 8.07595C5.14777 8.23991 5.38293 8.3352 5.62928 8.34566C6.22036 8.41643 6.87072 8.31505 7.36806 8.64024C7.50272 8.7172 7.60422 8.84117 7.65308 8.98838C7.80229 9.53928 6.82673 9.46085 6.50537 9.48572C5.87987 9.53545 5.25054 9.52398 4.62504 9.55841C3.63801 9.61579 2.65543 9.70952 1.67733 9.8396C1.32154 9.88742 0.315381 10.1954 0.52962 9.52015C0.684561 9.01898 1.35407 8.6938 1.78255 8.48721Z" fill="#F58727"/>
<path d="M8.40463 9.72673C9.68926 9.72673 10.7307 8.59027 10.7307 7.18838C10.7307 5.78648 9.68926 4.65002 8.40463 4.65002C7.12001 4.65002 6.07861 5.78648 6.07861 7.18838C6.07861 8.59027 7.12001 9.72673 8.40463 9.72673Z" fill="white" stroke="white" stroke-width="0.254156" stroke-miterlimit="10"/>
<path d="M8.22486 8.21366C8.8714 8.21366 9.39553 7.69296 9.39553 7.05065C9.39553 6.40833 8.8714 5.88763 8.22486 5.88763C7.57832 5.88763 7.0542 6.40833 7.0542 7.05065C7.0542 7.69296 7.57832 8.21366 8.22486 8.21366Z" fill="#EB343A"/>
<path d="M8.24051 7.94965C8.64302 7.94965 8.96931 7.50517 8.96931 6.95688C8.96931 6.40859 8.64302 5.96411 8.24051 5.96411C7.83801 5.96411 7.51172 6.40859 7.51172 6.95688C7.51172 7.50517 7.83801 7.94965 8.24051 7.94965Z" fill="black"/>
<path d="M7.58821 6.64128C7.57964 6.60285 7.57964 6.56301 7.58821 6.52459C7.66855 6.14202 8.04156 5.80727 8.47195 5.96413C8.59123 6.01264 8.69853 6.08654 8.7864 6.18068C8.87426 6.27482 8.94059 6.38695 8.98077 6.50929C8.72146 6.5629 8.4539 6.5629 8.19458 6.50929C8.17602 6.50272 8.15577 6.50272 8.1372 6.50929C8.12628 6.51753 8.1171 6.52787 8.11021 6.53969C8.10331 6.55151 8.09883 6.56458 8.09703 6.57815C8.07198 6.64178 8.02636 6.69519 7.96742 6.72986C7.90848 6.76453 7.83963 6.77846 7.77185 6.76944C7.72977 6.76754 7.68918 6.75329 7.65516 6.72845C7.62114 6.70362 7.59519 6.6693 7.58057 6.6298L7.58821 6.64128Z" fill="white"/>
<path d="M13.4775 62.2C14.2534 62.0546 15.0371 61.955 15.8246 61.9016C15.6333 61.4425 15.5013 60.7061 14.8988 61.0179C14.388 61.2818 13.8735 61.7906 13.4775 62.2Z" fill="#F58727"/>
<path d="M13.4775 62.2C14.2534 62.0546 15.0371 61.955 15.8246 61.9016C15.6333 61.4425 15.5013 60.7061 14.8988 61.0179C14.388 61.2818 13.8735 61.7906 13.4775 62.2Z" fill="black" fill-opacity="0.16"/>
<path d="M17.1712 62.9651C16.8967 63.1041 16.5875 63.1599 16.2817 63.1258C16.4156 62.7126 16.7867 62.0795 17.2382 61.9456C17.6207 61.8308 18.317 62.244 18.0913 62.7107C17.7508 62.6304 17.4696 62.8255 17.1712 62.9651Z" fill="#F58727"/>
<path d="M17.1712 62.9651C16.8967 63.1041 16.5875 63.1599 16.2817 63.1258C16.4156 62.7126 16.7867 62.0795 17.2382 61.9456C17.6207 61.8308 18.317 62.244 18.0913 62.7107C17.7508 62.6304 17.4696 62.8255 17.1712 62.9651Z" fill="black" fill-opacity="0.16"/>
<path d="M23.5371 63.2272C24.3001 63.0272 25.0742 62.8727 25.8555 62.7643C25.6317 62.3186 25.45 61.5936 24.8704 61.9475C24.3807 62.2536 23.9025 62.7968 23.5371 63.2272Z" fill="#F58727"/>
<path d="M23.5371 63.2272C24.3001 63.0272 25.0742 62.8727 25.8555 62.7643C25.6317 62.3186 25.45 61.5936 24.8704 61.9475C24.3807 62.2536 23.9025 62.7968 23.5371 63.2272Z" fill="black" fill-opacity="0.16"/>
<path d="M26.7774 62.9976C26.7966 62.9804 26.8272 62.9613 26.8501 62.9766C26.8605 62.9877 26.8673 63.0017 26.8693 63.0168C26.9209 63.2081 27.1715 63.2693 27.2901 63.4319C27.3016 63.4472 27.3111 63.4701 27.2901 63.4835L27.2748 63.4931C27.0242 63.6098 26.7755 63.736 26.5097 63.845C26.4389 63.8756 25.9358 63.9962 25.9243 64C26.1665 63.6322 26.4531 63.2955 26.7774 62.9976Z" fill="#F58727"/>
<path d="M26.7774 62.9976C26.7966 62.9804 26.8272 62.9613 26.8501 62.9766C26.8605 62.9877 26.8673 63.0017 26.8693 63.0168C26.9209 63.2081 27.1715 63.2693 27.2901 63.4319C27.3016 63.4472 27.3111 63.4701 27.2901 63.4835L27.2748 63.4931C27.0242 63.6098 26.7755 63.736 26.5097 63.845C26.4389 63.8756 25.9358 63.9962 25.9243 64C26.1665 63.6322 26.4531 63.2955 26.7774 62.9976Z" fill="black" fill-opacity="0.16"/>
</svg>
