<svg width="74" height="64" viewBox="0 0 74 64" fill="none" xmlns="http://www.w3.org/2000/svg">
<path d="M47.5004 34.9328C47.3692 34.5725 47.1386 34.2567 46.8353 34.022C47.5816 34.4365 48.4585 34.5486 49.2851 34.335C49.8503 34.1851 50.4589 33.7003 50.3046 33.1351C50.2111 32.7917 49.8698 32.5852 49.5611 32.4113L47.17 31.0853C48.1888 31.9057 49.4126 32.4319 50.7089 32.6069C51.356 32.6906 52.0134 32.6437 52.6422 32.469C53.2709 32.2942 53.8582 31.9952 54.3694 31.5896C54.6781 31.3309 54.9694 30.9245 54.8042 30.5527C54.6955 30.3619 54.5298 30.2099 54.3303 30.118C52.691 29.1659 50.8961 28.5116 49.0286 28.1856C51.8544 28.8985 54.8781 29.6072 57.6518 28.692C58.7234 28.3399 59.7668 27.6965 60.2602 26.6813C60.3629 26.4964 60.4104 26.286 60.3972 26.0749C60.3059 25.3619 59.3103 25.2793 58.5995 25.338C56.8676 25.4784 55.1246 25.2971 53.4586 24.8032C55.7932 25.1836 58.2408 25.3054 60.4754 24.5359C62.71 23.7664 64.7055 21.96 65.149 19.6384L60.8015 20.5753C63.1752 20.158 65.1859 18.532 66.6532 16.6213C68.1204 14.7106 69.1617 12.5086 70.3246 10.3957C71.8136 7.67641 73.6004 4.89621 73.5526 1.7943C73.5526 1.14218 73.3765 0.379201 72.7831 0.100964C72.3071 -0.116409 71.7484 0.057489 71.2615 0.24443C62.1318 3.73327 53.7564 9.2415 47.3505 16.667C44.8789 19.5276 42.6682 22.7099 41.5683 26.327C40.9684 28.2834 40.7336 30.5071 41.677 32.333C42.2312 33.3423 43.1003 34.1426 44.1517 34.612C45.203 35.0813 46.3791 35.194 47.5004 34.9328Z" fill="#EB343A"/>
<path d="M47.5004 34.9328C47.3692 34.5725 47.1386 34.2567 46.8353 34.022C47.5816 34.4365 48.4585 34.5486 49.2851 34.335C49.8503 34.1851 50.4589 33.7003 50.3046 33.1351C50.2111 32.7917 49.8698 32.5852 49.5611 32.4113L47.17 31.0853C48.1888 31.9057 49.4126 32.4319 50.7089 32.6069C51.356 32.6906 52.0134 32.6437 52.6422 32.469C53.2709 32.2942 53.8582 31.9952 54.3694 31.5896C54.6781 31.3309 54.9694 30.9245 54.8042 30.5527C54.6955 30.3619 54.5298 30.2099 54.3303 30.118C52.691 29.1659 50.8961 28.5116 49.0286 28.1856C51.8544 28.8985 54.8781 29.6072 57.6518 28.692C58.7234 28.3399 59.7668 27.6965 60.2602 26.6813C60.3629 26.4964 60.4104 26.286 60.3972 26.0749C60.3059 25.3619 59.3103 25.2793 58.5995 25.338C56.8676 25.4784 55.1246 25.2971 53.4586 24.8032C55.7932 25.1836 58.2408 25.3054 60.4754 24.5359C62.71 23.7664 64.7055 21.96 65.149 19.6384L60.8015 20.5753C63.1752 20.158 65.1859 18.532 66.6532 16.6213C68.1204 14.7106 69.1617 12.5086 70.3246 10.3957C71.8136 7.67641 73.6004 4.89621 73.5526 1.7943C73.5526 1.14218 73.3765 0.379201 72.7831 0.100964C72.3071 -0.116409 71.7484 0.057489 71.2615 0.24443C62.1318 3.73327 53.7564 9.2415 47.3505 16.667C44.8789 19.5276 42.6682 22.7099 41.5683 26.327C40.9684 28.2834 40.7336 30.5071 41.677 32.333C42.2312 33.3423 43.1003 34.1426 44.1517 34.612C45.203 35.0813 46.3791 35.194 47.5004 34.9328Z" fill="white" fill-opacity="0.08"/>
<path d="M26.5065 16.2018C28.5585 15.4236 30.8539 14.8193 32.9168 15.5497C34.6558 16.1605 35.9361 17.6104 36.9556 19.132C38.3073 21.1516 39.3178 23.3796 39.9466 25.7271C38.3685 26.1292 36.7469 25.3988 35.2775 24.6967C32.3908 23.3164 29.4888 21.973 26.5825 20.6318C26.1687 20.4194 25.7308 20.2574 25.2783 20.1493C24.9001 20.0754 24.511 20.0754 24.1262 20.0384C23.4241 19.9667 19.8222 18.5798 20.8852 17.9255C21.5243 17.5299 22.8568 17.5451 23.611 17.2952C24.5936 16.9713 25.5457 16.567 26.5065 16.2018Z" fill="#EB343A"/>
<path d="M26.5065 16.2018C28.5585 15.4236 30.8539 14.8193 32.9168 15.5497C34.6558 16.1605 35.9361 17.6104 36.9556 19.132C38.3073 21.1516 39.3178 23.3796 39.9466 25.7271C38.3685 26.1292 36.7469 25.3988 35.2775 24.6967C32.3908 23.3164 29.4888 21.973 26.5825 20.6318C26.1687 20.4194 25.7308 20.2574 25.2783 20.1493C24.9001 20.0754 24.511 20.0754 24.1262 20.0384C23.4241 19.9667 19.8222 18.5798 20.8852 17.9255C21.5243 17.5299 22.8568 17.5451 23.611 17.2952C24.5936 16.9713 25.5457 16.567 26.5065 16.2018Z" fill="white" fill-opacity="0.08"/>
<path d="M42.5967 45.0732C42.4723 45.1014 42.3513 45.143 42.2358 45.1971C41.9139 45.3609 41.6244 45.5819 41.3815 45.8493C37.8362 49.3446 37.021 54.7615 38.9904 59.259C39.0361 59.395 39.1198 59.5149 39.2317 59.6046C39.3123 59.6464 39.4007 59.6708 39.4913 59.6764C39.5819 59.6821 39.6726 59.6687 39.7578 59.6372C40.1642 59.5107 40.5415 59.3047 40.8676 59.0312C41.1937 58.7577 41.4623 58.4221 41.6576 58.0439C42.0437 57.2876 42.328 56.4836 42.5032 55.6528C43.364 52.3052 44.2168 48.957 45.0617 45.608C44.2857 45.2471 43.4031 44.8928 42.5967 45.0732Z" fill="#EB343A"/>
<path d="M42.5967 45.0732C42.4723 45.1014 42.3513 45.143 42.2358 45.1971C41.9139 45.3609 41.6244 45.5819 41.3815 45.8493C37.8362 49.3446 37.021 54.7615 38.9904 59.259C39.0361 59.395 39.1198 59.5149 39.2317 59.6046C39.3123 59.6464 39.4007 59.6708 39.4913 59.6764C39.5819 59.6821 39.6726 59.6687 39.7578 59.6372C40.1642 59.5107 40.5415 59.3047 40.8676 59.0312C41.1937 58.7577 41.4623 58.4221 41.6576 58.0439C42.0437 57.2876 42.328 56.4836 42.5032 55.6528C43.364 52.3052 44.2168 48.957 45.0617 45.608C44.2857 45.2471 43.4031 44.8928 42.5967 45.0732Z" fill="black" fill-opacity="0.16"/>
<path d="M42.8575 46.1101C42.8208 46.1472 42.788 46.188 42.7597 46.2319C42.6988 46.3395 42.6555 46.4562 42.6314 46.5775C41.8554 49.6033 41.3794 53.003 42.1141 56.0767C42.8119 58.9982 44.9399 62.2588 47.4376 63.9717C47.9593 64.3282 49.157 61.2067 49.2222 60.9458C49.6202 59.1606 49.6681 57.315 49.3635 55.5115C49.0697 53.7926 48.6275 52.1023 48.0419 50.4598C47.5571 49.0207 47.0615 47.5448 45.8051 46.5818C45.2617 46.171 43.514 45.4471 42.8575 46.1101Z" fill="#EB343A"/>
<path d="M42.8575 46.1101C42.8208 46.1472 42.788 46.188 42.7597 46.2319C42.6988 46.3395 42.6555 46.4562 42.6314 46.5775C41.8554 49.6033 41.3794 53.003 42.1141 56.0767C42.8119 58.9982 44.9399 62.2588 47.4376 63.9717C47.9593 64.3282 49.157 61.2067 49.2222 60.9458C49.6202 59.1606 49.6681 57.315 49.3635 55.5115C49.0697 53.7926 48.6275 52.1023 48.0419 50.4598C47.5571 49.0207 47.0615 47.5448 45.8051 46.5818C45.2617 46.171 43.514 45.4471 42.8575 46.1101Z" fill="black" fill-opacity="0.08"/>
<path d="M44.0465 45.6428C44.0222 45.6888 44.0018 45.7368 43.9856 45.7863C43.9554 45.9062 43.9444 46.0302 43.953 46.1536C44.0052 49.2664 44.453 52.6553 45.9703 55.4137C47.418 58.0352 50.3308 60.5937 53.1827 61.5719C53.7805 61.7784 54.1022 58.4591 54.0957 58.1918C54.0077 56.3715 53.5647 54.5859 52.7914 52.9357C52.0521 51.364 51.1794 49.8587 50.1829 48.4361C49.3374 47.1818 48.4679 45.895 47.0028 45.3081C46.3746 45.0559 44.4986 44.8298 44.0465 45.6428Z" fill="#EB343A"/>
<path d="M44.5941 46.6144C44.5853 46.6515 44.581 46.6894 44.5811 46.7275C44.5833 46.8175 44.6009 46.9064 44.6332 46.9905C45.3179 49.1642 46.3353 51.4271 47.9808 53.0378C49.535 54.5594 52.1109 55.7463 54.3063 55.8354C54.765 55.8528 54.3063 53.4639 54.2433 53.2813C53.8026 52.0274 53.121 50.8718 52.2369 49.8794C51.3911 48.9378 50.4676 48.0688 49.4763 47.2818C48.622 46.5862 47.7373 45.8667 46.6004 45.7602C46.1092 45.7145 44.7463 45.9514 44.5941 46.6144Z" fill="#EB343A"/>
<path d="M44.5941 46.6144C44.5853 46.6515 44.581 46.6894 44.5811 46.7275C44.5833 46.8175 44.6009 46.9064 44.6332 46.9905C45.3179 49.1642 46.3353 51.4271 47.9808 53.0378C49.535 54.5594 52.1109 55.7463 54.3063 55.8354C54.765 55.8528 54.3063 53.4639 54.2433 53.2813C53.8026 52.0274 53.121 50.8718 52.2369 49.8794C51.3911 48.9378 50.4676 48.0688 49.4763 47.2818C48.622 46.5862 47.7373 45.8667 46.6004 45.7602C46.1092 45.7145 44.7463 45.9514 44.5941 46.6144Z" fill="white" fill-opacity="0.08"/>
<path d="M12.5316 16.3539C13.2765 16.3901 14.0221 16.43 14.7684 16.4735C16.6238 16.5921 18.4695 16.831 20.294 17.1886C20.8939 17.3038 21.7852 17.4929 22.1221 18.0755C22.5438 18.808 21.8678 18.832 21.6873 19.4819C17.1899 17.9603 12.5164 17.4516 7.81678 17.0125C6.55601 16.8923 5.29525 16.7778 4.03449 16.6691L2.14334 16.5061C1.66077 16.4669 0.969526 16.2409 0.5 16.3648C1.63685 16.0998 2.80766 16.0111 3.97145 16.1017C5.13439 16.1626 6.30603 16.1517 7.47115 16.1778C9.15797 16.2141 10.8448 16.2728 12.5316 16.3539Z" fill="#F58727"/>
<path d="M27.3306 17.7734C30.1752 21.0858 33.7245 23.7201 37.7188 25.4836C36.4602 27.579 36.5537 30.2506 37.2841 32.583C38.0144 34.9154 39.3078 37.0217 40.4012 39.2085C41.6033 41.5996 42.7923 44.2081 43.564 46.7818C42.851 46.6774 41.9641 46.0231 41.3207 45.671C40.5447 45.2493 39.7839 44.8015 39.047 44.3059C36.2204 42.4451 33.7074 40.1471 31.6019 37.4978C30.5151 36.137 29.9934 34.535 29.2891 32.9634C28.8174 31.9069 28.7348 30.731 28.4196 29.605C27.4132 26.027 24.9416 23.0707 22.5505 20.234C22.0723 19.671 21.0833 19.5123 21.9462 18.9298C22.4831 18.5668 23.2635 18.4146 23.8787 18.2494C24.3743 18.1081 26.8849 17.256 27.3306 17.7734Z" fill="#EB343A"/>
<path d="M43.0161 18.5864C44.6176 17.0409 46.2956 15.5768 48.044 14.1998C49.9112 12.7195 51.848 11.3196 53.7848 9.94144C54.7869 9.23498 57.7758 6.2961 58.8626 8.23072C59.2235 8.88284 59.1148 9.67407 58.9452 10.3936C58.3844 12.7716 57.2736 14.978 56.1455 17.1452C54.3043 20.6797 52.3654 24.2142 49.6873 27.1683C47.644 29.4224 44.9573 31.3918 41.9141 31.4527C42.5662 31.1157 43.3705 31.281 43.9682 31.6918C44.566 32.1026 44.9855 32.72 45.3659 33.3351C47.3353 36.524 48.6787 40.3193 48.8439 44.1364C48.9917 47.447 48.2288 52.7748 45.1964 54.7877C43.24 51.9618 42.3423 48.4708 41.788 45.1276C41.1864 41.5203 39.9201 38.056 38.0535 34.9111C37.1666 33.4069 36.1146 31.907 35.9254 30.1702C35.6885 27.9834 36.8732 25.9053 38.1709 24.1272C39.6274 22.1474 41.2482 20.2939 43.0161 18.5864Z" fill="#EB343A"/>
<path d="M43.0161 18.5864C44.6176 17.0409 46.2956 15.5768 48.044 14.1998C49.9112 12.7195 51.848 11.3196 53.7848 9.94144C54.7869 9.23498 57.7758 6.2961 58.8626 8.23072C59.2235 8.88284 59.1148 9.67407 58.9452 10.3936C58.3844 12.7716 57.2736 14.978 56.1455 17.1452C54.3043 20.6797 52.3654 24.2142 49.6873 27.1683C47.644 29.4224 44.9573 31.3918 41.9141 31.4527C42.5662 31.1157 43.3705 31.281 43.9682 31.6918C44.566 32.1026 44.9855 32.72 45.3659 33.3351C47.3353 36.524 48.6787 40.3193 48.8439 44.1364C48.9917 47.447 48.2288 52.7748 45.1964 54.7877C43.24 51.9618 42.3423 48.4708 41.788 45.1276C41.1864 41.5203 39.9201 38.056 38.0535 34.9111C37.1666 33.4069 36.1146 31.907 35.9254 30.1702C35.6885 27.9834 36.8732 25.9053 38.1709 24.1272C39.6274 22.1474 41.2482 20.2939 43.0161 18.5864Z" fill="black" fill-opacity="0.08"/>
<path d="M29.4324 24.8554C31.6497 24.8554 33.4472 22.8934 33.4472 20.4732C33.4472 18.0529 31.6497 16.0909 29.4324 16.0909C27.215 16.0909 25.4175 18.0529 25.4175 20.4732C25.4175 22.8934 27.215 24.8554 29.4324 24.8554Z" fill="white" stroke="white" stroke-width="0.385934" stroke-miterlimit="10"/>
<path d="M29.1236 22.2426C30.2401 22.2426 31.1452 21.3433 31.1452 20.2341C31.1452 19.1248 30.2401 18.2255 29.1236 18.2255C28.0071 18.2255 27.1021 19.1248 27.1021 20.2341C27.1021 21.3433 28.0071 22.2426 29.1236 22.2426Z" fill="#EB343A"/>
<path d="M29.1497 21.7839C29.8448 21.7839 30.4083 21.017 30.4083 20.071C30.4083 19.125 29.8448 18.3581 29.1497 18.3581C28.4546 18.3581 27.8911 19.125 27.8911 20.071C27.8911 21.017 28.4546 21.7839 29.1497 21.7839Z" fill="black"/>
<path d="M28.0306 19.5276C28.0164 19.4609 28.0164 19.3921 28.0306 19.3254C28.1697 18.6516 28.8131 18.0886 29.5522 18.3581C29.7558 18.444 29.9387 18.5725 30.0886 18.7348C30.2386 18.8971 30.3521 19.0896 30.4217 19.2993C29.9869 19.4493 29.5196 19.3472 29.0631 19.3102C29.0305 19.3005 28.9957 19.3005 28.9631 19.3102C28.9262 19.3409 28.9021 19.3843 28.8957 19.4319C28.8538 19.5433 28.7758 19.6374 28.6742 19.6993C28.5725 19.7611 28.4531 19.7871 28.3349 19.7732C28.2638 19.7669 28.196 19.7407 28.1391 19.6976C28.0822 19.6546 28.0386 19.5964 28.0132 19.5297L28.0306 19.5276Z" fill="white"/>
</svg>
