<svg width="58" height="64" viewBox="0 0 58 64" fill="none" xmlns="http://www.w3.org/2000/svg">
<path d="M50.4433 40.1416C50.4941 40.1737 50.5417 40.2105 50.5855 40.2516C50.6952 40.3593 50.7925 40.4789 50.8757 40.6082C53.1364 43.8474 55.3743 47.6101 56.5084 51.3709C57.5875 54.9478 57.7601 59.3591 56.8042 62.1034C56.6032 62.6723 53.9594 59.4482 53.7698 59.1789C52.4786 57.248 51.4349 55.1626 50.6633 52.9716C49.9496 50.9358 49.3556 48.86 48.8844 46.7548C48.4595 44.9493 48.0233 43.0945 48.452 41.6001C48.6378 40.9552 49.5785 39.5878 50.4433 40.1416Z" fill="#EB343A"/>
<path d="M50.4433 40.1416C50.4941 40.1737 50.5417 40.2105 50.5855 40.2516C50.6952 40.3593 50.7925 40.4789 50.8757 40.6082C53.1364 43.8474 55.3743 47.6101 56.5084 51.3709C57.5875 54.9478 57.7601 59.3591 56.8042 62.1034C56.6032 62.6723 53.9594 59.4482 53.7698 59.1789C52.4786 57.248 51.4349 55.1626 50.6633 52.9716C49.9496 50.9358 49.3556 48.86 48.8844 46.7548C48.4595 44.9493 48.0233 43.0945 48.452 41.6001C48.6378 40.9552 49.5785 39.5878 50.4433 40.1416Z" fill="black" fill-opacity="0.08"/>
<path d="M50.6216 40.7125C50.66 40.7638 50.6949 40.8176 50.7259 40.8737C50.7995 41.0184 50.8579 41.1703 50.9004 41.327C52.1274 45.2831 53.1762 49.7229 53.2046 53.7226C53.2236 57.5252 52.154 61.7525 50.4888 63.9639C50.1399 64.4247 48.5525 60.3339 48.4501 59.9982C47.7762 57.6886 47.3746 55.3081 47.2534 52.9052C47.1479 50.7154 47.1682 48.5213 47.314 46.3338C47.4165 44.4638 47.5227 42.5407 48.342 41.3023C48.6928 40.7599 49.9616 39.842 50.6216 40.7125Z" fill="#EB343A"/>
<path d="M50.1818 39.9672C50.2023 39.979 50.22 39.9951 50.2338 40.0145C50.2475 40.0338 50.2569 40.0558 50.2614 40.0791C51.0921 43.8133 50.4985 48.5167 48.7688 53.057C47.7485 55.7368 46.4361 59.0234 44.6799 61.2234C44.5168 61.4282 43.7317 60.3643 43.6634 60.2751C42.8953 59.1202 42.6374 57.3735 42.7019 55.5225C42.8915 50.9386 44.6268 45.9014 47.4318 41.8106C48.107 40.8225 49.4118 39.4912 50.1818 39.9672Z" fill="#EB343A"/>
<path d="M50.1818 39.9672C50.2023 39.979 50.22 39.9951 50.2338 40.0145C50.2475 40.0338 50.2569 40.0558 50.2614 40.0791C51.0921 43.8133 50.4985 48.5167 48.7688 53.057C47.7485 55.7368 46.4361 59.0234 44.6799 61.2234C44.5168 61.4282 43.7317 60.3643 43.6634 60.2751C42.8953 59.1202 42.6374 57.3735 42.7019 55.5225C42.8915 50.9386 44.6268 45.9014 47.4318 41.8106C48.107 40.8225 49.4118 39.4912 50.1818 39.9672Z" fill="white" fill-opacity="0.08"/>
<path d="M31.2696 48.1734C32.6875 47.7623 34.1554 47.5497 35.6316 47.5418C36.3687 47.5342 37.1054 47.5741 37.8373 47.6613C38.4802 47.7391 39.1857 47.9837 39.821 47.7429C40.2781 47.5703 40.5797 47.1417 40.959 46.842C41.3383 46.5424 41.9812 46.4134 42.2751 46.806C42.4838 47.0848 42.3908 47.4736 42.1993 47.7353C42.1045 47.8642 41.4824 48.4142 41.344 48.3251C42.4515 49.0344 42.7815 50.252 42.6601 51.4885C42.4814 51.3203 42.273 51.1865 42.0457 51.094C39.943 50.0994 37.6772 49.4947 35.3585 49.3094C33.0182 49.1197 30.7633 49.6659 28.5178 50.2576C28.2769 50.3221 28.0417 50.4094 27.8009 50.4776C27.7042 50.5042 27.268 50.544 27.2319 50.6673C27.4766 50.0035 27.9621 49.6223 28.5595 49.279C29.108 48.9824 29.6786 48.7288 30.2664 48.5204C30.5976 48.3877 30.932 48.272 31.2696 48.1734Z" fill="#F58727"/>
<path d="M31.2696 48.1734C32.6875 47.7623 34.1554 47.5497 35.6316 47.5418C36.3687 47.5342 37.1054 47.5741 37.8373 47.6613C38.4802 47.7391 39.1857 47.9837 39.821 47.7429C40.2781 47.5703 40.5797 47.1417 40.959 46.842C41.3383 46.5424 41.9812 46.4134 42.2751 46.806C42.4838 47.0848 42.3908 47.4736 42.1993 47.7353C42.1045 47.8642 41.4824 48.4142 41.344 48.3251C42.4515 49.0344 42.7815 50.252 42.6601 51.4885C42.4814 51.3203 42.273 51.1865 42.0457 51.094C39.943 50.0994 37.6772 49.4947 35.3585 49.3094C33.0182 49.1197 30.7633 49.6659 28.5178 50.2576C28.2769 50.3221 28.0417 50.4094 27.8009 50.4776C27.7042 50.5042 27.268 50.544 27.2319 50.6673C27.4766 50.0035 27.9621 49.6223 28.5595 49.279C29.108 48.9824 29.6786 48.7288 30.2664 48.5204C30.5976 48.3877 30.932 48.272 31.2696 48.1734Z" fill="black" fill-opacity="0.08"/>
<path d="M41.5735 47.5968C42.0422 47.7635 42.5345 47.8544 43.0319 47.8661C43.4151 47.915 43.8037 47.9028 44.1831 47.8301C44.3724 47.7919 44.5499 47.7095 44.7012 47.5895C44.8525 47.4695 44.9733 47.3154 45.0536 47.1398C45.0772 47.0956 45.0874 47.0456 45.083 46.9958C45.0786 46.9459 45.0598 46.8984 45.0289 46.8591C44.9731 46.8213 44.9066 46.8027 44.8393 46.806C44.0352 46.7358 43.2936 46.3679 42.535 46.091C42.1443 45.9488 40.5171 45.4082 40.2421 45.9867C39.9671 46.5651 41.2056 47.4413 41.5735 47.5968Z" fill="#F58727"/>
<path d="M31.5029 48.8353C32.9006 48.3658 34.3562 48.0908 35.8288 48.0179C36.5645 47.9793 37.3019 47.9882 38.0364 48.0444C38.6831 48.0937 39.3981 48.3062 40.022 48.0444C40.4715 47.8548 40.7541 47.411 41.1296 47.0962C41.5051 46.7814 42.131 46.6239 42.442 47.0013C42.662 47.2707 42.5861 47.6632 42.406 47.9325C42.3168 48.0672 41.7175 48.6437 41.5753 48.5603C42.7132 49.2203 43.0925 50.4227 43.028 51.663C42.8408 51.5041 42.627 51.3796 42.3965 51.2951C40.2527 50.3933 37.9633 49.887 35.6392 49.8006C33.2932 49.7134 31.0629 50.3525 28.8458 51.0466L28.2257 51.2363C28.0398 51.2674 27.8592 51.3242 27.689 51.4051C27.7095 51.204 27.7886 51.0134 27.9165 50.857C28.5007 50.087 29.6557 49.5958 30.5186 49.2165C30.841 49.0761 31.1691 48.9491 31.5029 48.8353Z" fill="#F58727"/>
<path d="M30.4695 11.3107C30.5814 11.745 31.0726 11.9612 31.2982 12.3481C31.4295 12.6143 31.4853 12.9115 31.4595 13.2072C31.4234 14.5974 30.8658 15.923 30.1926 17.1406C29.1855 18.9688 28.133 20.5126 27.564 22.5286C25.9956 28.0835 25.2483 33.5645 28.353 38.7875C29.9638 41.4675 32.2998 43.6372 35.0913 45.046C38.5771 46.8136 41.6324 46.3641 45.416 46.1232C45.1713 46.1384 45.6056 47.4679 45.9337 47.6006C47.1209 48.1013 47.9801 46.5253 48.7576 45.8786C49.7893 45.0214 50.9291 44.2931 51.8281 43.286C53.2941 41.6437 53.0495 40.4754 52.6815 38.4215C52.3136 36.3675 51.8338 34.3762 51.3767 32.3526C51.2762 31.905 51.0183 31.3626 51.0866 30.8999C51.1719 30.3309 51.739 29.9269 51.8907 29.3826C51.9202 29.2521 51.9298 29.1178 51.9191 28.9844C51.8205 27.0461 50.7167 25.2805 50.1516 23.456C49.5238 21.4324 49.1312 19.3463 48.7273 17.2696C47.9364 13.2167 47.138 8.97986 44.6118 5.59647C41.6893 1.68205 37.1149 -0.0684417 32.347 0.035867C31.5372 0.0548322 29.6578 -0.153785 28.9655 0.261553C28.3378 0.640857 28.3757 2.12014 28.3036 2.78772C28.1782 3.93503 28.1446 5.09052 28.2031 6.24318C28.2505 7.19144 28.3643 8.17005 28.7398 9.05003C29.1154 9.93002 29.5838 10.9617 30.4695 11.3107Z" fill="#EB343A"/>
<path d="M30.4064 11.1723C30.5183 11.6047 31.0114 11.8228 31.2352 12.2097C31.3677 12.4755 31.4235 12.773 31.3964 13.0688C31.3623 14.4589 30.8028 15.7846 30.1314 17.0022C29.1225 18.8304 28.0718 20.3742 27.5009 22.3902C26.4294 26.1832 25.9458 30.0977 26.4067 34.031C26.492 34.7745 26.5242 35.9276 27.1349 36.4263C27.5996 34.7195 28.1799 33.4279 29.4107 32.1137C31.3869 30.0123 33.7576 28.3415 36.113 26.6953C37.2301 25.9139 38.3585 25.1364 39.4737 24.3607C40.4599 23.6703 40.8638 22.504 41.1919 21.3566C42.4368 16.8815 41.8928 12.0977 39.6747 8.01646C37.5885 4.18738 34.0098 2.63792 29.6819 3.05137C29.1983 3.09878 28.6844 3.16895 28.3183 3.48567C27.738 3.98825 28.0927 5.41064 28.1287 6.09718C28.1761 7.04544 28.2918 8.02405 28.6673 8.90403C29.0428 9.78402 29.5207 10.8233 30.4064 11.1723Z" fill="#EB343A"/>
<path d="M30.4064 11.1723C30.5183 11.6047 31.0114 11.8228 31.2352 12.2097C31.3677 12.4755 31.4235 12.773 31.3964 13.0688C31.3623 14.4589 30.8028 15.7846 30.1314 17.0022C29.1225 18.8304 28.0718 20.3742 27.5009 22.3902C26.4294 26.1832 25.9458 30.0977 26.4067 34.031C26.492 34.7745 26.5242 35.9276 27.1349 36.4263C27.5996 34.7195 28.1799 33.4279 29.4107 32.1137C31.3869 30.0123 33.7576 28.3415 36.113 26.6953C37.2301 25.9139 38.3585 25.1364 39.4737 24.3607C40.4599 23.6703 40.8638 22.504 41.1919 21.3566C42.4368 16.8815 41.8928 12.0977 39.6747 8.01646C37.5885 4.18738 34.0098 2.63792 29.6819 3.05137C29.1983 3.09878 28.6844 3.16895 28.3183 3.48567C27.738 3.98825 28.0927 5.41064 28.1287 6.09718C28.1761 7.04544 28.2918 8.02405 28.6673 8.90403C29.0428 9.78402 29.5207 10.8233 30.4064 11.1723Z" fill="white" fill-opacity="0.08"/>
<path d="M32.9159 28.2334C33.9837 26.0448 37.0447 24.281 39.1593 23.274C40.9212 22.4338 42.939 21.9919 44.8488 22.4224C45.6349 22.626 46.4005 22.9015 47.136 23.2455C50.6939 24.7779 52.5829 29.3049 53.5653 32.8172C54.7601 37.0787 54.8208 41.9206 53.222 46.0834C52.8998 45.5373 52.5182 45.0284 52.0841 44.5662C51.5432 46.1352 51.2085 47.7679 51.0884 49.4232C49.7224 48.4645 48.2003 47.7502 46.5899 47.3124C46.9521 47.9003 47.2479 48.6399 47.1285 49.3151C43.8835 48.5679 40.521 45.6567 38.2452 43.3467C34.8921 39.952 30.5017 33.1814 32.9159 28.2334Z" fill="#EB343A"/>
<path d="M32.9159 28.2334C33.9837 26.0448 37.0447 24.281 39.1593 23.274C40.9212 22.4338 42.939 21.9919 44.8488 22.4224C45.6349 22.626 46.4005 22.9015 47.136 23.2455C50.6939 24.7779 52.5829 29.3049 53.5653 32.8172C54.7601 37.0787 54.8208 41.9206 53.222 46.0834C52.8998 45.5373 52.5182 45.0284 52.0841 44.5662C51.5432 46.1352 51.2085 47.7679 51.0884 49.4232C49.7224 48.4645 48.2003 47.7502 46.5899 47.3124C46.9521 47.9003 47.2479 48.6399 47.1285 49.3151C43.8835 48.5679 40.521 45.6567 38.2452 43.3467C34.8921 39.952 30.5017 33.1814 32.9159 28.2334Z" fill="black" fill-opacity="0.08"/>
<path d="M33.4201 28.8232C33.3973 28.4268 33.3897 28.0266 33.3935 27.6227C33.403 26.7579 34.8576 25.9974 35.5062 25.5612C36.4667 24.9275 37.4719 24.3647 38.5141 23.877C39.7658 23.2796 40.7899 23.2379 42.1175 23.6646C44.6228 24.4669 46.4283 26.5417 47.6648 28.7852C47.9417 29.2859 48.3381 29.8833 48.4367 30.4447C48.5733 31.2318 48.4576 32.1516 48.469 32.9519C48.4898 34.6588 48.5031 36.3467 48.4898 38.0441C48.4746 40.0108 48.4234 41.9793 48.3002 43.9441C48.2167 45.3836 48.084 46.8705 47.3955 48.1392C47.349 48.2494 47.2678 48.3413 47.1642 48.401C46.9916 48.4806 46.6104 48.1184 46.4511 48.0311C46.1266 47.8439 45.8149 47.6355 45.518 47.4072C43.8411 46.1822 42.2709 44.8175 40.8241 43.3278C36.9002 39.2749 33.7349 34.6398 33.4201 28.8232Z" fill="white" stroke="white" stroke-width="0.752266" stroke-miterlimit="10"/>
<path d="M28.2256 3.39842C31.3681 2.09931 37.1715 2.99067 37.0065 7.40957C36.8965 10.3871 33.6591 11.7829 31.1557 12.2514" fill="#EB343A"/>
<path d="M22.9836 0.635214C17.2656 1.57399 11.6823 3.71137 7.33166 7.53666C2.41588 11.8493 0.282292 18.4796 0.51746 24.9145C0.5 26.0001 0.5 26.5001 0.78487 27.3212C1.5 25.5001 3.73206 24.0061 5.40669 22.9592C7.47352 21.6773 9.64822 20.5782 11.9061 19.6744C17.3927 17.4649 23.2586 16.5034 29.1644 16.5963C30.748 16.621 32.2614 16.6456 32.7678 14.971C33.5511 12.3633 32.36 9.96989 31.7987 7.48355C31.4957 6.14229 31.1022 4.82309 30.6209 3.535C30.4768 3.15569 29.4223 0.0643612 29.0753 0.0738438C27.0344 0.122924 24.9991 0.310479 22.9836 0.635214Z" fill="#F58727"/>
<path d="M33.1034 17.2923C36.8741 17.2923 39.9308 13.9562 39.9308 9.8409C39.9308 5.72559 36.8741 2.38947 33.1034 2.38947C29.3326 2.38947 26.2759 5.72559 26.2759 9.8409C26.2759 13.9562 29.3326 17.2923 33.1034 17.2923Z" fill="white" stroke="white" stroke-width="0.752266" stroke-miterlimit="10"/>
<path d="M32.5761 12.8469C34.4741 12.8469 36.0126 11.3185 36.0126 9.43315C36.0126 7.54779 34.4741 6.01941 32.5761 6.01941C30.6782 6.01941 29.1396 7.54779 29.1396 9.43315C29.1396 11.3185 30.6782 12.8469 32.5761 12.8469Z" fill="#EB343A"/>
<path d="M32.6216 12.0712C33.8042 12.0712 34.7628 10.767 34.7628 9.15817C34.7628 7.54934 33.8042 6.24512 32.6216 6.24512C31.4391 6.24512 30.4805 7.54934 30.4805 9.15817C30.4805 10.767 31.4391 12.0712 32.6216 12.0712Z" fill="black"/>
<path d="M30.7193 8.23263C30.6984 8.11808 30.7023 8.00039 30.7307 7.88746C30.9696 6.74955 32.0582 5.78422 33.3251 6.24508C33.6747 6.38761 33.9893 6.60414 34.2473 6.87979C34.5053 7.15544 34.7005 7.48368 34.8196 7.84195C34.0913 8.09988 33.2853 7.9254 32.5115 7.86091C32.4544 7.85164 32.3958 7.85887 32.3427 7.88178C32.3111 7.90703 32.2847 7.9383 32.2652 7.97378C32.2456 8.00925 32.2333 8.04824 32.2289 8.0885C32.1545 8.27581 32.0202 8.43322 31.847 8.53615C31.6737 8.63908 31.4712 8.68173 31.2712 8.65745C31.1501 8.6471 31.0345 8.60255 30.9378 8.52902C30.8411 8.45549 30.7673 8.35599 30.725 8.24211L30.7193 8.23263Z" fill="white"/>
<path d="M33.6514 28.332C33.6299 27.935 33.6211 27.5348 33.6249 27.1315C33.6344 26.2666 35.089 25.5061 35.7395 25.0718C36.6999 24.4376 37.7052 23.8741 38.7474 23.3858C39.9972 22.7903 41.0232 22.7467 42.3508 23.1734C45.4478 24.1653 47.4372 27.0461 48.6871 29.8947C49.6903 32.1838 50.191 34.6113 50.5343 37.073C50.6481 37.8942 50.7599 38.7154 50.8624 39.5385C50.9648 40.3616 50.9458 41.124 51.0141 41.9281C51.1051 43.0281 51.3289 44.1129 51.3934 45.2167C51.432 46.2307 51.3806 47.2462 51.2398 48.2511C51.1657 48.8607 51.2056 49.4787 51.3574 50.0737C50.7637 49.8309 50.1967 49.2999 49.6334 48.9699C49.0255 48.6108 48.3959 48.2897 47.7483 48.0084C47.3936 47.8547 47.0314 47.7144 46.6919 47.5266C46.3678 47.339 46.0561 47.1306 45.7588 46.9027C44.0824 45.6778 42.5122 44.3138 41.0649 42.8252C37.1315 38.7837 33.9663 34.1486 33.6514 28.332Z" fill="#EB343A"/>
<path d="M33.6514 28.332C33.6299 27.935 33.6211 27.5348 33.6249 27.1315C33.6344 26.2666 35.089 25.5061 35.7395 25.0718C36.6999 24.4376 37.7052 23.8741 38.7474 23.3858C39.9972 22.7903 41.0232 22.7467 42.3508 23.1734C45.4478 24.1653 47.4372 27.0461 48.6871 29.8947C49.6903 32.1838 50.191 34.6113 50.5343 37.073C50.6481 37.8942 50.7599 38.7154 50.8624 39.5385C50.9648 40.3616 50.9458 41.124 51.0141 41.9281C51.1051 43.0281 51.3289 44.1129 51.3934 45.2167C51.432 46.2307 51.3806 47.2462 51.2398 48.2511C51.1657 48.8607 51.2056 49.4787 51.3574 50.0737C50.7637 49.8309 50.1967 49.2999 49.6334 48.9699C49.0255 48.6108 48.3959 48.2897 47.7483 48.0084C47.3936 47.8547 47.0314 47.7144 46.6919 47.5266C46.3678 47.339 46.0561 47.1306 45.7588 46.9027C44.0824 45.6778 42.5122 44.3138 41.0649 42.8252C37.1315 38.7837 33.9663 34.1486 33.6514 28.332Z" fill="black" fill-opacity="0.16"/>
</svg>
