<svg width="64" height="64" viewBox="0 0 64 64" fill="none" xmlns="http://www.w3.org/2000/svg">
<path d="M0 11C0 4.92487 4.92487 0 11 0H53C59.0751 0 64 4.92487 64 11V53C64 59.0751 59.0751 64 53 64H11C4.92487 64 0 59.0751 0 53V11Z" fill="black"/>
<path d="M18.5366 39.1077C19.6129 38.6187 20.8067 38.3466 22.0635 38.3466C22.7904 38.3466 23.4963 38.4376 24.1705 38.609C24.4986 38.6751 24.8232 38.7589 25.1428 38.8601C25.7256 32.9187 26.3076 26.9777 26.8888 21.0371C27.0564 19.3281 27.2239 17.5937 26.9572 15.8974C26.6905 14.2011 25.9315 12.5197 24.5901 11.5461C24.3063 11.3401 23.9644 11.1617 23.6282 11.2411C23.3604 11.3044 23.1507 11.5185 22.9592 11.7279C16.4288 18.8631 14.3147 29.681 18.3857 38.7807C18.4347 38.89 18.485 38.9993 18.5366 39.1077Z" fill="#EB343A"/>
<path d="M18.5366 39.1077C19.6129 38.6187 20.8067 38.3466 22.0635 38.3466C22.7904 38.3466 23.4963 38.4376 24.1705 38.609C24.4986 38.6751 24.8232 38.7589 25.1428 38.8601C25.7256 32.9187 26.3076 26.9777 26.8888 21.0371C27.0564 19.3281 27.2239 17.5937 26.9572 15.8974C26.6905 14.2011 25.9315 12.5197 24.5901 11.5461C24.3063 11.3401 23.9644 11.1617 23.6282 11.2411C23.3604 11.3044 23.1507 11.5185 22.9592 11.7279C16.4288 18.8631 14.3147 29.681 18.3857 38.7807C18.4347 38.89 18.485 38.9993 18.5366 39.1077Z" fill="black" fill-opacity="0.16"/>
<path d="M25.8018 20.2266C28.9883 15.1859 34.9785 10.5066 40.5903 9.01055C41.7642 8.69752 41.8554 15.4506 41.7961 15.9892C41.4041 19.6454 40.1447 23.1624 38.4625 26.3686C36.8465 29.454 34.844 32.2724 32.7539 35.0057L32.7407 35.0229C31.2031 37.0344 29.6298 39.0928 27.4339 40.2459C25.962 39.0572 24.0951 38.3464 22.0637 38.3464C21.5148 38.3464 20.9779 38.3983 20.4575 38.4975C21.0639 32.249 22.4609 25.5106 25.8018 20.2266Z" fill="#EB343A"/>
<path d="M25.8018 20.2266C28.9883 15.1859 34.9785 10.5066 40.5903 9.01055C41.7642 8.69752 41.8554 15.4506 41.7961 15.9892C41.4041 19.6454 40.1447 23.1624 38.4625 26.3686C36.8465 29.454 34.844 32.2724 32.7539 35.0057L32.7407 35.0229C31.2031 37.0344 29.6298 39.0928 27.4339 40.2459C25.962 39.0572 24.0951 38.3464 22.0637 38.3464C21.5148 38.3464 20.9779 38.3983 20.4575 38.4975C21.0639 32.249 22.4609 25.5106 25.8018 20.2266Z" fill="black" fill-opacity="0.08"/>
<path d="M32.2795 24.1174C36.6103 20.1712 43.5441 17.3643 49.3177 17.5036C50.5247 17.5323 48.9154 24.0449 48.7217 24.5421C47.427 27.9486 45.3323 30.9741 42.9093 33.5808C40.5809 36.085 37.9426 38.2325 35.2461 40.2706C33.5724 41.5373 31.8634 42.8304 29.9267 43.5015C28.7357 40.8031 26.2225 38.8307 23.2183 38.4238C25.3212 33.1457 28.19 27.8428 32.2795 24.1174Z" fill="#EB343A"/>
<path d="M34.0335 30.6256C37.8377 28.8246 43.2421 28.3953 47.2538 29.7682C48.0915 30.056 45.6799 34.2531 45.4542 34.5569C43.8735 36.6514 41.8107 38.3029 39.6008 39.5883C37.4787 40.8243 35.2085 41.7427 32.92 42.5713C31.9371 42.9274 30.9365 43.2891 29.9227 43.4926C28.9395 41.2718 27.0602 39.544 24.749 38.778C27.2852 35.4967 30.3793 32.3534 34.0335 30.6256Z" fill="#EB343A"/>
<path d="M34.0335 30.6256C37.8377 28.8246 43.2421 28.3953 47.2538 29.7682C48.0915 30.056 45.6799 34.2531 45.4542 34.5569C43.8735 36.6514 41.8107 38.3029 39.6008 39.5883C37.4787 40.8243 35.2085 41.7427 32.92 42.5713C31.9371 42.9274 30.9365 43.2891 29.9227 43.4926C28.9395 41.2718 27.0602 39.544 24.749 38.778C27.2852 35.4967 30.3793 32.3534 34.0335 30.6256Z" fill="white" fill-opacity="0.08"/>
<path d="M22.0647 54C25.8734 54 28.9609 50.8822 28.9609 47.0363C28.9609 43.1903 25.8734 40.0726 22.0647 40.0726C18.256 40.0726 15.1685 43.1903 15.1685 47.0363C15.1685 50.8822 18.256 54 22.0647 54Z" fill="white"/>
</svg>
