<svg width="417" height="417" viewBox="0 0 417 417" fill="none" xmlns="http://www.w3.org/2000/svg">
<path d="M208.23 416.46C323.232 416.46 416.46 323.232 416.46 208.23C416.46 93.2277 323.232 0 208.23 0C93.2277 0 0 93.2277 0 208.23C0 323.232 93.2277 416.46 208.23 416.46Z" fill="#2B292A"/>
<path d="M197.96 65.3C197.58 65.11 197.22 64.88 196.88 64.6C195.94 63.85 195.26 62.83 194.63 61.8C185.97 47.48 187.85 29.2 198.08 16.22C198.38 15.84 198.71 15.45 199.17 15.29C199.74 15.1 200.37 15.33 200.9 15.62C203.41 16.99 205.02 19.63 205.77 22.39C206.52 25.15 206.52 28.05 206.52 30.9C206.5 42.5 206.47 54.09 206.45 65.69C203.61 66.16 200.43 66.55 197.95 65.29H197.96V65.3Z" fill="#C22932"/>
<path d="M199.68 62.14C199.59 61.99 199.52 61.83 199.46 61.66C199.33 61.27 199.32 60.84 199.32 60.43C199.32 49.95 200.62 38.5 205.6 29.12C210.33 20.21 220.02 11.39 229.6 7.89C231.6 7.16 232.9 18.32 232.89 19.21C232.82 25.34 231.2 31.38 228.8 36.99C226.49 42.38 223.45 47.41 220.26 52.31C217.47 56.58 214.61 60.97 209.71 63.05C207.59 63.95 201.28 64.83 199.69 62.13L199.68 62.14Z" fill="#D52631"/>
<path d="M203.17 64.66C203.13 64.49 203.1 64.32 203.09 64.14C203.07 63.73 203.18 63.32 203.29 62.92C206.08 52.85 210.37 42.19 217.65 34.5C224.57 27.19 236.23 21.29 246.36 20.48C248.48 20.31 246.76 31.38 246.51 32.23C244.81 38.1 241.65 43.48 237.85 48.23C234.2 52.79 229.94 56.82 225.57 60.68C221.76 64.04 217.84 67.51 212.57 68.2C210.29 68.5 203.99 67.67 203.18 64.65L203.17 64.66Z" fill="#E02B36"/>
<path d="M205.77 61.95C205.77 61.82 205.79 61.7 205.82 61.57C205.89 61.28 206.05 61.01 206.21 60.76C210.26 54.3 215.49 47.75 222.19 43.89C228.55 40.22 237.94 38.54 245.19 40.08C246.71 40.4 243.19 47.78 242.84 48.33C240.42 52.08 237.09 55.18 233.44 57.71C229.93 60.14 226.12 62.07 222.25 63.85C218.88 65.4 215.42 67.01 211.59 66.39C209.93 66.12 205.7 64.23 205.77 61.95Z" fill="#EE323C"/>
<path d="M343.38 259.92C347.38 262.56 350.34 265.32 350.31 267.83C350.23 274.43 334.17 284.12 329.21 286.79C320.42 291.51 310.51 293.97 300.53 293.97C266.99 293.97 239.8 266.78 239.8 233.24C239.8 223.36 240.22 221.26 250.15 220.63C259.59 220.03 269.3 220.24 278.28 223.51C283.4 225.37 288.11 228.17 292.79 230.96C303.18 237.14 313.57 243.31 323.96 249.49C327.44 251.56 336.81 255.59 343.38 259.93V259.92Z" fill="white"/>
<path d="M242.3 351.11C242.3 351.11 237.09 340.09 225.62 339.95C214.15 339.81 213.67 345.69 213.67 345.69C213.67 345.69 225.88 344.35 233.61 351.63" fill="#F04A23"/>
<path d="M296.02 350.92C296.02 350.92 290.81 339.9 279.34 339.76C267.87 339.63 267.39 345.5 267.39 345.5C267.39 345.5 279.6 344.16 287.33 351.44" fill="#F04A23"/>
<path d="M310.42 201.7C310.27 201.44 310.15 201.16 310.06 200.86C309.85 200.18 309.85 199.46 309.86 198.74C310.16 180.75 312.72 161.12 321.53 145.16C329.9 129.98 346.8 115.11 363.34 109.39C366.8 108.19 368.71 127.39 368.66 128.92C368.36 139.44 365.42 149.78 361.13 159.34C357.01 168.53 351.65 177.08 346.02 185.41C341.11 192.67 336.08 200.13 327.6 203.56C323.93 205.04 313.07 206.38 310.42 201.7Z" fill="#E92835"/>
<path d="M317.18 199.37C317.03 199.04 316.98 198.72 317.03 198.42C320.93 176.42 334.1 157.37 352.53 145.03C363.42 137.74 377.08 129.12 390.6 127.95C391.87 127.84 393.52 137 393.62 137.76C394.96 147.23 392.47 156.82 388.14 165.23C377.63 185.66 357.4 200.73 334.89 205.12C329.41 206.19 320 205.62 317.17 199.38H317.18V199.37Z" fill="#EE323C"/>
<path d="M322.19 206.02C322.16 205.69 322.22 205.39 322.36 205.14C332.78 187.11 350.38 174.61 370.46 169.66C382.32 166.73 397.03 163.53 409.26 166.81C410.41 167.12 408.93 175.67 408.79 176.37C406.95 185.09 401.71 192.7 395.25 198.69C379.54 213.24 357.02 220.01 335.9 216.7C330.75 215.89 322.69 212.4 322.2 206.03L322.19 206.02Z" fill="#EF404C"/>
<path d="M252.37 312.09C252.37 312.09 249.75 348.91 241.05 348.79C232.35 348.67 215.79 343.19 208.64 352.36C208.64 352.36 203.99 357.6 207.33 364.28C207.33 364.28 218.17 355.22 238.55 359.39C238.55 359.39 242.96 365.82 250.47 361.65C257.98 357.48 260.12 332.93 260.12 332.93L261.91 311" fill="#F6871F"/>
<path d="M236.98 289.79L243.97 309.09C243.97 309.09 245.45 313.72 252.05 313.92C258.65 314.12 261.7 314.22 261.7 314.22C261.7 314.22 267.41 313.83 268 305.16C268.59 296.49 267.8 295.61 267.8 295.61" fill="#D62028"/>
<path d="M306.23 311.39C306.23 311.39 303.61 348.21 294.91 348.09C286.21 347.97 269.65 342.49 262.5 351.66C262.5 351.66 257.85 356.9 261.19 363.58C261.19 363.58 272.03 354.52 292.41 358.69C292.41 358.69 296.82 365.12 304.33 360.95C311.84 356.78 313.98 332.23 313.98 332.23L315.77 310.3" fill="#F6871F"/>
<path d="M154.4 86.7C157.14 77.55 162.59 69.6 171.51 64.12C186.66 54.79 207.62 52.74 223.91 60.15C246.06 70.22 259.72 96.22 255.45 120.18C252.83 134.91 244.24 149.45 248.13 163.9C248.69 165.97 249.56 168.06 251.2 169.43C254.18 171.91 258.55 171.3 262.39 170.84C288.13 167.76 315.12 178.85 331.25 199.14C336.83 206.16 341.13 214.1 346.56 221.24C351.99 228.37 358.89 234.88 367.51 237.35C364.45 242.66 355.45 242.8 352.23 237.58C355.95 242.81 362.15 246.2 368.57 246.51C369.49 248.94 366.65 251.46 364.07 251.22C361.49 250.98 359.42 249.03 357.69 247.09C360.76 252.9 367.49 256.55 374.03 255.95C373.84 262.99 366.82 267.8 360.19 270.18C349.12 274.16 337.13 274.83 325.38 274.36C308.61 273.69 291.6 270.67 276.88 262.6C262.16 254.53 249.93 240.89 246.33 224.5C245.66 245.42 262.45 263.77 281.93 271.44C301.41 279.11 323.07 278.34 343.95 276.94C329.01 295.17 303.03 299.79 279.47 299.38C248.92 298.85 216.27 290.63 196.7 267.17C183.88 251.8 178.14 231.21 178.99 211.21C179.84 191.21 186.93 171.81 197.31 154.69C198.11 153.37 199.98 150.63 199.16 148.97C198.34 147.31 196.58 147.84 194.99 147.7C190.98 147.35 187.01 146.52 183.2 145.24C175.74 142.74 168.84 138.55 163.28 132.98C158.93 128.62 155.34 123.38 153.66 117.45C152.33 112.76 152.24 107.81 152.22 102.94C152.19 97.29 152.87 91.8 154.4 86.69V86.7Z" fill="#EF3C45"/>
<path d="M318.5 286.68C319.5 286.65 320.4 286.85 321.07 287.71C322 288.91 322.34 291.24 322.72 292.69C323.44 295.38 324.07 298.15 324.41 300.91C324.57 302.21 324.87 303.98 324.17 305.19C323.36 312.46 318.38 313.81 318.38 313.81L303.44 313.54C297.76 309.96 294.41 303.2 291.97 297.19C290.82 294.38 289.85 291.5 289 288.58C288.69 287.51 288.11 286.46 288.3 285.33C297.47 287.2 306.66 287.99 316.01 286.97C316.85 286.88 317.7 286.71 318.5 286.69V286.68Z" fill="#EE323C"/>
<path d="M150.22 92.37C150.04 92.65 149.84 92.92 149.64 93.18C147.71 95.63 145.26 97.81 142.82 99.73C137.25 104.11 130.97 106.77 124.26 108.87C119.74 110.29 115.85 114.01 113.1 117.82C107.27 125.86 104.84 136.31 104.53 146.11C104.41 150.07 104.79 154.05 105.75 157.9C106.77 161.97 107.02 163.06 111.1 160.73C111.85 160.3 112.64 159.95 113.42 159.58C126.08 153.57 139.5 148.84 152.64 144C156.34 142.64 159.9 140.91 163.64 139.65C168.18 138.13 172.96 138.44 177.43 136.83C181.9 135.22 185.49 132.42 188.17 128.76C189.62 126.77 190.79 124.53 191.19 122.1C191.74 118.73 190.75 115.31 189.55 112.11C184.38 98.4 175.81 85.98 159.96 84.4C158.08 84.21 155.98 84.27 154.6 85.55C152.6 87.41 151.72 90.11 150.24 92.36H150.22V92.37Z" fill="#F99B1C"/>
<path d="M107.92 161.76L107.4 160.91C107.48 160.86 115.06 156.17 124.31 147.17C130.87 140.79 137.74 138.84 145.01 136.77C156.58 133.48 168.55 130.08 181.44 108.55L182.3 109.06C169.21 130.93 156.5 134.54 145.29 137.73C138.14 139.76 131.39 141.68 125.01 147.88C115.67 156.96 108 161.71 107.92 161.76Z" fill="#F47D20"/>
<path d="M199.15 136.91C217.364 136.91 232.13 120.797 232.13 100.92C232.13 81.0433 217.364 64.9301 199.15 64.9301C180.936 64.9301 166.17 81.0433 166.17 100.92C166.17 120.797 180.936 136.91 199.15 136.91Z" fill="white" stroke="white" stroke-width="0.69" stroke-miterlimit="10"/>
<path d="M196.6 115.45C205.768 115.45 213.2 108.067 213.2 98.96C213.2 89.8528 205.768 82.47 196.6 82.47C187.432 82.47 180 89.8528 180 98.96C180 108.067 187.432 115.45 196.6 115.45Z" fill="#EF3C45"/>
<path d="M196.83 111.7C202.541 111.7 207.17 105.401 207.17 97.6301C207.17 89.8594 202.541 83.5601 196.83 83.5601C191.12 83.5601 186.49 89.8594 186.49 97.6301C186.49 105.401 191.12 111.7 196.83 111.7Z" fill="#24212D"/>
<path d="M187.64 93.13C187.51 92.59 187.58 92.01 187.7 91.46C188.85 85.93 194.13 81.3 200.23 83.52C203.72 84.79 206.22 87.88 207.45 91.24C203.93 92.47 200.04 91.64 196.3 91.33C196.02 91.31 195.72 91.29 195.48 91.43C195.14 91.62 195.05 92.04 194.93 92.4C194.34 94.21 192.28 95.46 190.31 95.19C189.13 95.03 187.97 94.29 187.67 93.2C187.67 93.17 187.67 93.15 187.65 93.12L187.64 93.13Z" fill="white"/>
<path d="M32.9301 358.25C31.2001 358.25 29.4801 358.21 27.7701 358.14C25.3201 358.03 22.8601 357.75 20.4801 357.47C15.3901 356.89 10.5901 356.33 5.6301 357.28L5.3501 355.81C10.5301 354.82 15.6801 355.41 20.6501 355.99C23.0001 356.26 25.4301 356.54 27.8301 356.65C39.2701 357.17 51.0401 355.79 62.4201 354.46C80.4601 352.35 99.1201 350.17 116.69 355.57L116.25 357C98.9801 351.7 80.4801 353.86 62.5901 355.95C52.8501 357.09 42.8201 358.26 32.9201 358.26L32.9301 358.25Z" fill="white"/>
<path d="M411.29 376.41C388.65 374.95 365.69 374.56 343.02 375.24C327.53 375.7 311.72 373.77 296.42 371.9C291.19 371.26 285.79 370.6 280.5 370.05C271.49 369.11 261.29 368.05 252.43 363.89C248.62 362.1 245.06 359.75 241.63 357.48C239.42 356.02 237.13 354.5 234.81 353.16C227.7 349.06 221.28 347.51 215.72 348.56C213.23 349.03 210.82 350.04 208.48 351.02C207.15 351.58 205.78 352.15 204.38 352.63C199.92 354.18 195.1 354.78 190.93 355.23C175.75 356.87 160.3 357.33 145.03 356.61L145.1 355.11C160.3 355.83 175.67 355.36 190.77 353.73C195.04 353.27 199.57 352.7 203.89 351.21C205.24 350.75 206.59 350.18 207.9 349.63C210.31 348.62 212.8 347.58 215.44 347.08C221.36 345.97 228.12 347.57 235.55 351.86C237.91 353.22 240.22 354.75 242.45 356.23C245.84 358.47 249.35 360.79 253.06 362.54C261.69 366.58 271.33 367.59 280.65 368.56C285.95 369.11 291.36 369.77 296.6 370.42C311.84 372.28 327.6 374.21 342.97 373.75C365.68 373.06 388.7 373.46 411.38 374.92L411.28 376.42L411.29 376.41Z" fill="white"/>
<path d="M3.79994 382.25L2.93994 381.02C8.25994 377.3 14.3899 377.14 20.3199 376.99C22.8999 376.92 25.5699 376.85 28.1099 376.49C31.2499 376.04 34.4499 375.49 37.5399 374.96C46.5399 373.42 55.8399 371.82 65.2699 372.34C71.2099 372.67 77.0599 373.84 82.7299 374.97C85.9899 375.62 89.3699 376.3 92.7099 376.8C102.21 378.22 111.88 378.34 121.46 377.14C126.57 376.5 131.77 375.46 136.81 374.46C148.29 372.18 160.16 369.82 171.8 371.92C175.12 372.52 178.36 373.48 181.48 374.41C183.48 375 185.56 375.62 187.62 376.13C200.94 379.41 215.57 379.71 229.72 380.01C233.05 380.08 236.35 380.15 239.6 380.25L239.55 381.75C236.3 381.64 233.01 381.58 229.69 381.51C215.46 381.21 200.75 380.91 187.27 377.59C185.17 377.07 183.08 376.45 181.06 375.85C177.97 374.93 174.78 373.99 171.54 373.4C160.18 371.35 148.45 373.68 137.11 375.93C132.05 376.93 126.82 377.97 121.66 378.62C111.94 379.84 102.13 379.72 92.4899 378.28C89.1099 377.77 85.7199 377.09 82.4399 376.43C76.8299 375.31 71.0299 374.14 65.1899 373.82C55.9299 373.31 46.7099 374.89 37.7899 376.43C34.6899 376.96 31.4799 377.51 28.3199 377.97C25.6899 378.35 22.9799 378.42 20.3499 378.49C14.3799 378.65 8.73994 378.79 3.78994 382.25H3.79994Z" fill="white"/>
<path d="M348.26 387.88C345.8 387.88 343.35 387.55 340.97 387.23L339.79 387.07C333.73 386.29 327.56 385.9 321.44 385.9C318.35 385.9 315.33 386.14 312.4 386.37C310.29 386.54 308.11 386.71 305.91 386.79C301.96 386.94 298.09 386.29 294.35 385.65C292.22 385.29 290.01 384.91 287.82 384.69C281.16 384.03 273.98 384.2 267.03 384.37C264.38 384.44 261.64 384.5 259.01 384.52V383.02C261.61 383 264.35 382.94 266.99 382.87C273.98 382.7 281.21 382.52 287.97 383.19C290.21 383.41 292.44 383.79 294.6 384.16C298.26 384.78 302.04 385.43 305.85 385.28C308.02 385.2 310.18 385.02 312.28 384.86C315.24 384.62 318.3 384.38 321.44 384.38C327.62 384.38 333.86 384.78 339.99 385.57L341.18 385.73C344.04 386.11 346.99 386.51 349.88 386.31C352.12 386.15 354.2 385.65 356.41 385.12C358.06 384.72 359.77 384.31 361.53 384.07C366.66 383.35 371.92 384.03 377.01 384.7C378.27 384.87 379.54 385.03 380.79 385.17C391.82 386.42 403.23 385.98 414.25 385.56L414.31 387.06C403.22 387.49 391.76 387.93 380.62 386.67C379.35 386.53 378.08 386.36 376.81 386.2C371.82 385.55 366.67 384.88 361.74 385.57C360.05 385.81 358.38 386.21 356.76 386.6C354.59 387.12 352.35 387.66 349.98 387.83C349.41 387.87 348.84 387.89 348.27 387.89L348.26 387.88Z" fill="white"/>
<path d="M121.02 361.22C120.53 361.24 120.13 361.15 119.77 361.01C119.4 360.88 119.07 360.69 118.76 360.47C118.46 360.24 118.18 359.98 117.95 359.66C117.71 359.35 117.51 358.99 117.39 358.51C117.88 358.49 118.28 358.58 118.65 358.72C119.02 358.85 119.35 359.04 119.65 359.26C119.95 359.49 120.23 359.75 120.46 360.07C120.7 360.38 120.9 360.74 121.02 361.21V361.22Z" fill="white"/>
<path d="M123.06 352.75C122.73 353.21 122.35 353.53 121.95 353.81C121.55 354.09 121.13 354.31 120.69 354.48C120.25 354.65 119.79 354.78 119.31 354.84C118.83 354.91 118.33 354.93 117.77 354.81C118.1 354.35 118.48 354.02 118.88 353.75C119.28 353.47 119.7 353.25 120.14 353.08C120.58 352.91 121.04 352.78 121.52 352.72C122 352.65 122.5 352.63 123.05 352.75H123.06Z" fill="white"/>
<path d="M113.94 348.14C114.32 348.43 114.55 348.76 114.72 349.09C114.91 349.42 115.02 349.77 115.1 350.12C115.17 350.48 115.2 350.84 115.15 351.22C115.11 351.6 115.02 351.98 114.79 352.4C114.41 352.11 114.18 351.78 114 351.45C113.81 351.12 113.7 350.77 113.63 350.42C113.56 350.06 113.53 349.7 113.58 349.32C113.62 348.94 113.71 348.56 113.94 348.14Z" fill="white"/>
<path d="M143.45 358.34C143.22 358.87 142.9 359.28 142.56 359.65C142.22 360.02 141.84 360.33 141.43 360.61C141.02 360.88 140.59 361.12 140.12 361.3C139.65 361.48 139.15 361.62 138.57 361.64C138.8 361.11 139.12 360.7 139.46 360.33C139.8 359.96 140.18 359.65 140.59 359.37C141 359.1 141.43 358.86 141.9 358.69C142.37 358.51 142.86 358.37 143.44 358.35H143.45V358.34Z" fill="white"/>
<path d="M143.59 348.7C144 348.94 144.26 349.22 144.48 349.52C144.7 349.82 144.86 350.14 144.97 350.47C145.08 350.81 145.15 351.15 145.15 351.53C145.15 351.91 145.11 352.29 144.93 352.72C144.52 352.48 144.26 352.2 144.04 351.9C143.82 351.6 143.66 351.28 143.55 350.95C143.44 350.61 143.37 350.26 143.37 349.89C143.37 349.52 143.41 349.13 143.59 348.7Z" fill="white"/>
<path d="M138.37 352.78C138.85 352.74 139.25 352.82 139.62 352.94C139.99 353.06 140.32 353.23 140.63 353.44C140.93 353.65 141.21 353.9 141.45 354.21C141.69 354.51 141.9 354.86 142.03 355.33C141.55 355.37 141.15 355.29 140.78 355.17C140.41 355.05 140.08 354.88 139.77 354.67C139.47 354.45 139.19 354.2 138.95 353.89C138.71 353.59 138.5 353.24 138.37 352.77V352.78Z" fill="white"/>
<path d="M244.32 384.92C243.83 384.94 243.43 384.85 243.07 384.71C242.7 384.58 242.37 384.39 242.06 384.17C241.76 383.94 241.48 383.68 241.25 383.36C241.01 383.05 240.81 382.69 240.69 382.21C241.18 382.19 241.58 382.28 241.95 382.42C242.32 382.55 242.65 382.74 242.95 382.96C243.25 383.19 243.53 383.45 243.76 383.77C244 384.08 244.2 384.44 244.32 384.91V384.92Z" fill="white"/>
<path d="M246.36 378.2C246.03 378.66 245.65 378.98 245.25 379.26C244.85 379.54 244.43 379.76 243.99 379.93C243.55 380.1 243.09 380.23 242.61 380.29C242.13 380.36 241.63 380.38 241.07 380.26C241.4 379.8 241.78 379.47 242.18 379.2C242.58 378.92 243 378.7 243.44 378.53C243.88 378.36 244.34 378.23 244.82 378.17C245.3 378.1 245.8 378.08 246.35 378.2H246.36Z" fill="white"/>
<path d="M238.59 374.25C238.97 374.54 239.2 374.87 239.37 375.2C239.56 375.53 239.67 375.88 239.75 376.23C239.82 376.59 239.85 376.95 239.8 377.33C239.76 377.71 239.67 378.09 239.44 378.51C239.06 378.22 238.83 377.89 238.65 377.56C238.46 377.23 238.35 376.88 238.28 376.53C238.21 376.17 238.18 375.81 238.23 375.43C238.27 375.05 238.36 374.67 238.59 374.25Z" fill="white"/>
<path d="M257.91 384.16C257.68 384.69 257.36 385.1 257.02 385.47C256.68 385.84 256.3 386.15 255.89 386.43C255.48 386.7 255.05 386.94 254.58 387.12C254.11 387.3 253.61 387.44 253.03 387.46C253.26 386.93 253.58 386.52 253.92 386.15C254.26 385.78 254.64 385.47 255.05 385.19C255.46 384.92 255.89 384.68 256.36 384.51C256.83 384.33 257.32 384.19 257.9 384.17H257.91V384.16Z" fill="white"/>
<path d="M257.45 377.36C257.86 377.6 258.12 377.88 258.34 378.18C258.56 378.48 258.72 378.8 258.83 379.13C258.94 379.47 259.01 379.81 259.01 380.19C259.01 380.57 258.97 380.95 258.79 381.38C258.38 381.14 258.12 380.86 257.9 380.56C257.68 380.26 257.52 379.94 257.41 379.61C257.3 379.27 257.23 378.92 257.23 378.55C257.23 378.18 257.27 377.79 257.45 377.36Z" fill="white"/>
<path d="M252.76 379.85C253.24 379.81 253.64 379.89 254.01 380.01C254.38 380.13 254.71 380.3 255.02 380.51C255.32 380.72 255.6 380.97 255.84 381.28C256.08 381.58 256.29 381.93 256.42 382.4C255.94 382.44 255.54 382.36 255.17 382.24C254.8 382.12 254.47 381.95 254.16 381.74C253.86 381.52 253.58 381.27 253.34 380.96C253.1 380.66 252.89 380.31 252.76 379.84V379.85Z" fill="white"/>
<path d="M102.86 115.14C101.32 116.12 99.8999 117.26 98.6599 118.6C93.9299 123.69 91.6099 130.89 92.0599 137.79C92.6599 146.9 97.6199 155.36 104.37 161.51C108.38 165.16 114.22 167.34 119.66 167.04C117.99 164.61 116.44 159.09 117.2 156.27C118.15 152.78 122.1 151.25 124.99 149.08C130.34 145.04 132.48 137.75 131.79 131.08C131.1 124.41 127.98 118.24 124.47 112.52C123.95 111.68 123.38 110.8 122.49 110.37C121.7 109.99 120.79 110.02 119.91 110.09C114.19 110.53 107.87 111.96 102.85 115.14H102.86Z" fill="#EF3C45"/>
</svg>
