<svg width="36" height="48" viewBox="0 0 36 48" fill="none" xmlns="http://www.w3.org/2000/svg">
<path d="M4.5366 31.1077C5.61289 30.6187 6.80674 30.3466 8.06351 30.3466C8.79041 30.3466 9.49627 30.4376 10.1705 30.609C10.4986 30.6751 10.8232 30.7589 11.1428 30.8601C11.7256 24.9187 12.3076 18.9777 12.8888 13.0371C13.0564 11.3281 13.2239 9.59375 12.9572 7.89741C12.6905 6.20108 11.9315 4.5197 10.5901 3.54609C10.3063 3.34009 9.96442 3.16171 9.62821 3.24112C9.36038 3.30442 9.15068 3.51847 8.95922 3.72792C2.42883 10.8631 0.314716 21.681 4.38567 30.7807C4.43472 30.89 4.48503 30.9993 4.5366 31.1077Z" fill="#EB343A"/>
<path d="M4.5366 31.1077C5.61289 30.6187 6.80674 30.3466 8.06351 30.3466C8.79041 30.3466 9.49627 30.4376 10.1705 30.609C10.4986 30.6751 10.8232 30.7589 11.1428 30.8601C11.7256 24.9187 12.3076 18.9777 12.8888 13.0371C13.0564 11.3281 13.2239 9.59375 12.9572 7.89741C12.6905 6.20108 11.9315 4.5197 10.5901 3.54609C10.3063 3.34009 9.96442 3.16171 9.62821 3.24112C9.36038 3.30442 9.15068 3.51847 8.95922 3.72792C2.42883 10.8631 0.314716 21.681 4.38567 30.7807C4.43472 30.89 4.48503 30.9993 4.5366 31.1077Z" fill="black" fill-opacity="0.16"/>
<path d="M11.8018 12.2266C14.9883 7.18595 20.9785 2.50664 26.5903 1.01055C27.7642 0.697521 27.8554 7.45064 27.7961 7.98923C27.4041 11.6454 26.1447 15.1624 24.4625 18.3686C22.8465 21.454 20.844 24.2724 18.7539 27.0057L18.7407 27.0229C17.2031 29.0344 15.6298 31.0928 13.4339 32.2459C11.962 31.0572 10.0951 30.3464 8.06371 30.3464C7.51479 30.3464 6.97788 30.3983 6.45752 30.4975C7.06394 24.249 8.46092 17.5106 11.8018 12.2266Z" fill="#EB343A"/>
<path d="M11.8018 12.2266C14.9883 7.18595 20.9785 2.50664 26.5903 1.01055C27.7642 0.697521 27.8554 7.45064 27.7961 7.98923C27.4041 11.6454 26.1447 15.1624 24.4625 18.3686C22.8465 21.454 20.844 24.2724 18.7539 27.0057L18.7407 27.0229C17.2031 29.0344 15.6298 31.0928 13.4339 32.2459C11.962 31.0572 10.0951 30.3464 8.06371 30.3464C7.51479 30.3464 6.97788 30.3983 6.45752 30.4975C7.06394 24.249 8.46092 17.5106 11.8018 12.2266Z" fill="black" fill-opacity="0.08"/>
<path d="M18.2795 16.1174C22.6103 12.1712 29.5441 9.36431 35.3177 9.50356C36.5247 9.53233 34.9154 16.0449 34.7217 16.5421C33.427 19.9486 31.3323 22.9741 28.9093 25.5808C26.5809 28.085 23.9426 30.2325 21.2461 32.2706C19.5724 33.5373 17.8634 34.8304 15.9267 35.5015C14.7357 32.8031 12.2225 30.8307 9.21826 30.4238C11.3212 25.1457 14.19 19.8428 18.2795 16.1174Z" fill="#EB343A"/>
<path d="M20.0335 22.6256C23.8377 20.8246 29.2421 20.3953 33.2538 21.7682C34.0915 22.056 31.6799 26.2531 31.4542 26.5569C29.8735 28.6514 27.8107 30.3029 25.6008 31.5883C23.4787 32.8243 21.2085 33.7427 18.92 34.5713C17.9371 34.9274 16.9365 35.2891 15.9227 35.4926C14.9395 33.2718 13.0602 31.544 10.749 30.778C13.2852 27.4967 16.3793 24.3534 20.0335 22.6256Z" fill="#EB343A"/>
<path d="M20.0335 22.6256C23.8377 20.8246 29.2421 20.3953 33.2538 21.7682C34.0915 22.056 31.6799 26.2531 31.4542 26.5569C29.8735 28.6514 27.8107 30.3029 25.6008 31.5883C23.4787 32.8243 21.2085 33.7427 18.92 34.5713C17.9371 34.9274 16.9365 35.2891 15.9227 35.4926C14.9395 33.2718 13.0602 31.544 10.749 30.778C13.2852 27.4967 16.3793 24.3534 20.0335 22.6256Z" fill="white" fill-opacity="0.08"/>
<path d="M8.06468 46C11.8734 46 14.9609 42.8822 14.9609 39.0363C14.9609 35.1903 11.8734 32.0726 8.06468 32.0726C4.256 32.0726 1.16846 35.1903 1.16846 39.0363C1.16846 42.8822 4.256 46 8.06468 46Z" fill="white"/>
</svg>
