<svg width="196" height="187" viewBox="0 0 196 187" fill="none" xmlns="http://www.w3.org/2000/svg">
<path d="M65.5344 7.43401C71.963 11.0452 76.158 17.5862 76.7699 24.9485C77.1325 29.1366 76.8033 33.2196 76.4805 37.1727C76.2637 39.7517 76.0801 42.1826 76.082 44.551C76.0765 44.7979 76.6737 69.1734 100.232 82.4072C102.882 83.8958 109.953 85.4172 113.799 86.027C114.549 86.148 115.255 86.4947 115.809 87.0226C119.242 90.3515 127.516 98.4506 130.867 103.884C130.569 101.299 127.529 94.3068 126.491 92.0897C125.724 90.4584 126.228 88.5245 127.686 87.4763C129.157 86.4352 131.155 86.5909 132.456 87.8383L133.008 88.3987C137.208 92.4415 146.991 101.922 150.514 115.704C132.674 118.519 112.827 119.357 93.9467 108.751C62.2986 90.9733 50.0374 70.4486 54.2133 42.2192C54.5078 40.184 53.0947 38.3066 51.0645 37.9997C49.0343 37.6928 47.1422 39.0973 46.8405 41.1451C42.2094 72.4363 56.0232 95.9838 90.296 115.236C109.429 125.984 129.68 125.973 147.09 123.683C147.416 123.55 147.753 123.455 148.106 123.421C170.978 121.065 186.8 111.814 186.8 111.814C187.995 111.085 189.506 111.1 190.694 111.834C191.807 112.526 192.483 113.756 192.445 115.068C192.427 116.375 191.71 117.589 190.565 118.23C190.565 118.23 178.407 125.271 160.065 129.038C159.714 134.226 157.475 146.772 143.891 155.812C142.79 156.611 141.324 156.754 140.089 156.161C138.867 155.574 138.054 154.351 137.984 152.994C137.92 151.625 138.595 150.337 139.763 149.626C149.854 142.907 152.136 134.703 152.61 130.302C151.653 130.431 150.747 130.589 149.764 130.704C133.026 157.028 99.518 160.311 75.6 149.643C75.4914 149.598 75.39 149.541 75.2885 149.484C74.0332 148.779 73.2985 147.416 73.395 145.97C73.501 144.596 74.3535 143.408 75.5857 142.849C76.1839 142.469 85.4648 136.862 87.6612 135.095C79.7144 138.45 61.642 140.818 61.0414 140.848C60.2062 140.879 59.3979 140.625 58.7108 140.155C27.9734 118.121 3.34122 72.3752 35.1066 15.9485C41.1459 5.2205 54.7949 1.40115 65.5344 7.43401Z" fill="#6AFFD0"/>
</svg>
