<svg width="193" height="41" viewBox="0 0 193 41" fill="none" xmlns="http://www.w3.org/2000/svg">
<path d="M141.24 12.9801C140.28 11.3601 138.95 10.1001 137.24 9.20006C135.53 8.27006 133.56 7.81006 131.33 7.81006C129.1 7.81006 127.04 8.30006 125.24 9.29006C123.44 10.2501 122.02 11.5701 120.98 13.2501C119.97 14.9301 119.46 16.8601 119.46 19.0301C119.46 21.2001 119.98 23.1901 121.03 24.9001C122.1 26.5801 123.58 27.9001 125.46 28.8601C127.34 29.7901 129.53 30.2501 132.02 30.2501C133.96 30.2501 135.69 29.9501 137.19 29.3401C138.7 28.7301 139.99 27.8201 141.06 26.6001L136.8 22.3801C136.16 23.1001 135.45 23.6401 134.67 23.9901C133.92 24.3101 133.03 24.4701 132.02 24.4701C131.01 24.4701 130.11 24.2701 129.41 23.8601C128.71 23.4501 128.18 22.8601 127.8 22.0801C127.75 21.9701 127.73 21.8201 127.69 21.7001L142.36 21.6001C142.5 20.9601 142.59 20.4101 142.62 19.9501C142.68 19.4601 142.71 18.9901 142.71 18.5601C142.71 16.4701 142.22 14.6201 141.23 13.0001L141.24 12.9801ZM129.25 14.2401C129.89 13.8101 130.64 13.5901 131.51 13.5901C132.38 13.5901 133.05 13.7801 133.6 14.1501C134.15 14.5301 134.56 15.0901 134.82 15.8501C134.88 16.0101 134.91 16.2201 134.97 16.4101L127.69 16.4701C127.73 16.3601 127.74 16.2201 127.78 16.1201C128.13 15.3101 128.62 14.6901 129.26 14.2501L129.25 14.2401Z" fill="white"/>
<path d="M108.67 9.82984C108.3 9.60984 107.93 9.39984 107.5 9.23984C106.46 8.80984 105.31 8.58984 104.07 8.58984C102.07 8.58984 100.3 9.04984 98.7698 9.97984C97.2298 10.9098 96.0298 12.1698 95.1598 13.7598C94.2898 15.3298 93.8598 17.0898 93.8598 19.0598C93.8598 21.0298 94.2898 22.7698 95.1598 24.3598C96.0298 25.9498 97.2298 27.2098 98.7698 28.1398C100.31 29.0698 102.07 29.5298 104.07 29.5298C105.32 29.5298 106.46 29.3298 107.5 28.9198C107.85 28.7798 108.15 28.5898 108.46 28.4198V29.0998C108.46 30.3798 108.05 31.3498 107.24 32.0098C106.46 32.6798 105.37 33.0098 103.98 33.0098C102.82 33.0098 101.84 32.7898 101.02 32.3598C100.21 31.9498 99.4698 31.3898 98.7998 30.6598L93.7598 35.6598C94.7698 37.1098 96.2098 38.2198 98.0598 39.0098C99.9098 39.8198 102.05 40.2298 104.45 40.2298C106.85 40.2298 108.96 39.7498 110.84 38.7998C112.72 37.8698 114.22 36.5498 115.32 34.8398C116.42 33.1298 116.97 31.0998 116.97 28.7498V9.02984H108.67V9.83984V9.82984ZM107.41 21.8098C106.92 22.1298 106.32 22.2898 105.63 22.2898C104.94 22.2898 104.38 22.1298 103.89 21.8098C103.43 21.4598 103.06 21.0398 102.8 20.5498C102.54 20.0298 102.41 19.5198 102.41 19.0298C102.41 18.5098 102.54 17.9998 102.8 17.5098C103.06 16.9898 103.44 16.5698 103.93 16.2498C104.42 15.9298 105 15.7698 105.67 15.7698C106.34 15.7698 106.95 15.9298 107.41 16.2498C107.9 16.5698 108.28 16.9698 108.54 17.4698C108.8 17.9598 108.93 18.4798 108.93 19.0398C108.93 19.5998 108.8 20.1098 108.54 20.6098C108.28 21.0998 107.9 21.5098 107.41 21.8298V21.8098Z" fill="white"/>
<path d="M87.8299 9.62984C86.6399 8.92984 85.2799 8.58984 83.7399 8.58984C82.0299 8.58984 80.4899 8.91984 79.1299 9.58984C78.7799 9.76984 78.4399 9.96984 78.1299 10.1798V9.01984H69.6099V30.4098H78.1299V18.4098C78.1299 17.8598 78.2299 17.3998 78.4299 17.0198C78.6599 16.6098 78.9699 16.3098 79.3399 16.1098C79.7499 15.9098 80.1899 15.8098 80.6899 15.8098C81.4099 15.8098 82.0099 16.0398 82.4699 16.5098C82.9599 16.9398 83.2099 17.5798 83.2099 18.4198V30.4198H91.7299V16.4698C91.7299 14.9298 91.3799 13.5898 90.6899 12.4298C89.9899 11.2398 89.0399 10.3098 87.8199 9.64984L87.8299 9.62984Z" fill="white"/>
<path d="M57.3199 10.2501C56.7899 9.8501 56.2199 9.5001 55.5399 9.2501C54.4999 8.8201 53.3499 8.6001 52.1099 8.6001C50.1099 8.6001 48.3399 9.0801 46.8099 10.0301C45.2699 10.9601 44.0699 12.2601 43.1999 13.9401C42.3299 15.6201 41.8999 17.5501 41.8999 19.7201C41.8999 21.8901 42.3299 23.8201 43.1999 25.5001C44.0699 27.1501 45.2699 28.4601 46.8099 29.4101C48.3499 30.3701 50.1099 30.8401 52.1099 30.8401C53.3599 30.8401 54.4999 30.6401 55.5399 30.2301C56.2199 29.9501 56.7899 29.5901 57.3199 29.1901V30.4001H65.6199V9.0301H57.3199V10.2501ZM54.0199 23.3701C53.3499 23.3701 52.7399 23.2101 52.1899 22.8901C51.6399 22.5701 51.1999 22.1401 50.8899 21.5901C50.5999 21.0401 50.4599 20.4201 50.4599 19.7201C50.4599 19.0201 50.6199 18.4001 50.9399 17.8501C51.2599 17.3001 51.6799 16.8601 52.1999 16.5501C52.7499 16.2301 53.3699 16.0701 54.0699 16.0701C54.7699 16.0701 55.3699 16.2301 55.8999 16.5501C56.4499 16.8701 56.8699 17.3001 57.1599 17.8501C57.4499 18.3701 57.5899 18.9901 57.5899 19.7201C57.5899 20.7901 57.2599 21.6801 56.5899 22.3701C55.9499 23.0401 55.0999 23.3701 54.0299 23.3701H54.0199Z" fill="white"/>
<path d="M40.97 8.93984C40.27 8.70984 39.43 8.58984 38.45 8.58984C36.31 8.58984 34.52 9.11984 33.06 10.1598V9.01984H24.54V30.4098H33.06V18.8498C33.06 17.8898 33.28 17.1698 33.71 16.6798C34.14 16.1598 34.8 15.8998 35.67 15.8998C36.19 15.8998 36.64 15.9898 37.02 16.1598C37.43 16.2998 37.73 16.4898 37.93 16.7298L42.71 9.94984C42.28 9.51984 41.7 9.17984 40.97 8.94984V8.93984Z" fill="white"/>
<path d="M10.41 8.49023C4.66 8.49023 0 13.2002 0 19.0002C0 24.8002 4.66 29.5102 10.41 29.5102C16.16 29.5102 20.82 24.8002 20.82 19.0002C20.82 13.2002 16.16 8.49023 10.41 8.49023ZM10.36 22.6102C9.69 22.6102 9.08 22.4502 8.53 22.1302C7.98 21.8102 7.54 21.3802 7.23 20.8302C6.94 20.2802 6.8 19.6602 6.8 18.9602C6.8 18.2602 6.96 17.6402 7.28 17.0902C7.6 16.5402 8.02 16.1002 8.54 15.7902C9.09 15.4702 9.71 15.3102 10.41 15.3102C11.11 15.3102 11.71 15.4702 12.24 15.7902C12.79 16.1102 13.21 16.5402 13.5 17.0902C13.79 17.6102 13.93 18.2302 13.93 18.9602C13.93 20.0302 13.6 20.9202 12.93 21.6102C12.29 22.2802 11.44 22.6102 10.37 22.6102H10.36Z" fill="white"/>
<rect x="158" width="35" height="35" rx="3.5" fill="#EB343A"/>
</svg>
