<svg width="64" height="64" viewBox="0 0 64 64" fill="none" xmlns="http://www.w3.org/2000/svg">
<rect x="0.5" y="0.5" width="63" height="63" rx="8.5" fill="#5CA995"/>
<rect x="0.5" y="0.5" width="63" height="63" rx="8.5" stroke="#346761"/>
<path d="M30.7164 22.6493C30.7164 22.6493 30.2404 22.6563 29.7499 21.3094C29.6056 20.9096 29.5046 20.5027 29.3964 20.0889C29.2666 19.5698 29.144 19.0436 29.0213 18.5246C28.9492 18.2229 28.8699 17.9283 28.7977 17.6267C28.7256 17.339 28.6679 17.0444 28.603 16.7568C28.5597 16.5534 28.5092 16.357 28.4587 16.1535C28.3866 15.8519 28.3 15.5573 28.2279 15.2557C28.1486 14.933 28.0836 14.6173 28.0043 14.2946C27.9682 14.1543 28.0043 14.0912 28.0908 14.0491V14C26.5256 14 28.5669 14 20.1564 14C19.904 14 19.6443 14 19.3918 14C19.1466 14 19.0961 14.0842 19.1466 14.2946C19.2331 14.6103 19.2981 14.933 19.3702 15.2557C19.4423 15.5573 19.5217 15.8519 19.601 16.1535C19.6515 16.357 19.6948 16.5534 19.7453 16.7568C19.8102 17.0444 19.8751 17.339 19.94 17.6267C20.0122 17.9283 20.0915 18.2229 20.1636 18.5246C20.2935 19.0436 20.4089 19.5698 20.5387 20.0889C20.6469 20.4957 20.719 20.9236 20.8922 21.3094C21.2745 22.1652 22.0607 22.5651 23.0705 22.6493C23.2076 22.6633 23.3518 22.6563 23.4889 22.6563H27.9177" fill="white"/>
<path d="M53.7764 49.986C53.7764 49.7826 53.7548 49.5721 53.7548 49.3687C53.7548 39.8706 53.7548 30.3656 53.7548 20.8675C53.7548 20.4887 53.7548 20.1029 53.7043 19.7311C53.6394 19.3313 53.5167 18.9314 53.3869 18.5386C53.12 17.767 52.68 17.0725 52.103 16.4552C51.36 15.6625 50.48 15.0172 49.3908 14.6033C48.9364 14.4279 48.4748 14.2806 47.9915 14.1754C47.5803 14.0842 47.1476 14.0561 46.7292 14.0141C46.52 13.993 46.3108 14.0141 46.1016 14.0141C33.6013 14.0141 44.2046 14.0141 31.7043 14.0141C31.4518 14.0141 31.1921 14.0141 30.9397 14.0141C30.6944 14.0141 30.6439 14.0982 30.6944 14.3087C30.781 14.6243 30.8459 14.947 30.918 15.2697C30.9902 15.5713 31.0695 15.866 31.1489 16.1676C31.1994 16.364 31.2426 16.5674 31.2931 16.7709C31.358 17.0585 31.423 17.3531 31.4879 17.6407C31.56 17.9423 31.6394 18.237 31.7115 18.5386C31.8413 19.0577 31.9567 19.5838 32.0866 20.1029C32.1948 20.5098 32.2669 20.9377 32.44 21.3235C32.8223 22.1793 33.6085 22.5791 34.6184 22.6633C34.7554 22.6773 34.8997 22.6703 35.0367 22.6703C45.6977 22.6703 33.2479 22.6703 43.9089 22.6703C44.4859 22.6703 45.0702 22.6703 45.64 22.7335C47.4794 22.9229 49.0013 23.6664 50.242 24.88C50.8695 25.4973 51.3312 26.1988 51.6413 26.9704C51.901 27.6088 52.0597 28.2681 52.0813 28.9556C52.0813 29.0889 52.0813 29.2222 52.0813 29.3554C52.0813 36.0476 52.0813 42.7397 52.0813 49.4388C52.0813 49.6212 52.0525 49.8036 52.0308 49.986H53.7692H53.7764Z" fill="white"/>
<path d="M50.7182 49.986C50.6965 49.8036 50.6605 49.6212 50.6605 49.4388C50.6605 43.4061 50.6605 37.3663 50.6605 31.3336C50.6605 30.5479 50.6028 29.7693 50.3575 29.0117C50.1411 28.3383 49.8093 27.7069 49.3621 27.1317C48.7706 26.3671 48.0277 25.7217 47.126 25.2377C46.5634 24.9361 45.9719 24.7046 45.3444 24.5292C44.5437 24.3047 43.7359 24.2556 42.9136 24.2556C32.0795 24.2556 21.2454 24.2556 10.4113 24.2556C10.3392 24.2556 10.2742 24.2556 10.2021 24.2556C10.0218 24.2767 9.97129 24.3468 10.0146 24.5152C10.1444 25.0413 10.2742 25.5744 10.4041 26.1005C10.5195 26.5846 10.6493 27.0616 10.7647 27.5456C10.9018 28.1068 11.0244 28.668 11.1615 29.2291C11.2769 29.7062 11.4067 30.1832 11.5293 30.6672C11.587 30.8987 11.6159 31.1302 11.6952 31.3546C11.9693 32.1192 12.5536 32.5752 13.4192 32.8067C13.7942 32.9049 14.1693 32.9049 14.5516 32.9049C23.568 32.9049 32.5844 32.9049 41.5936 32.9049C42.4952 32.9049 43.3752 33.0312 44.2047 33.3188C45.7916 33.873 47.0611 34.7919 47.9339 36.1177C48.648 37.198 48.9654 38.3624 48.9582 39.6111C48.9437 42.901 48.9582 46.191 48.951 49.4809C48.951 49.6563 48.9149 49.8246 48.9005 50H50.711L50.7182 49.986Z" fill="white"/>
<path d="M47.5228 49.986C47.5228 46.9135 47.5228 43.841 47.5228 40.7615C47.5228 39.8215 47.2126 38.9377 46.751 38.1029C46.2749 37.2401 45.5969 36.5035 44.7458 35.9073C44.0317 35.4092 43.2526 35.0234 42.3799 34.7849C41.4999 34.5394 40.6054 34.4412 39.6894 34.4412C30.7667 34.4412 21.8441 34.4412 12.9287 34.4412C12.9143 34.4412 12.9071 34.4412 12.8926 34.4412C12.4671 34.4412 12.431 34.4903 12.532 34.855C12.6185 35.1707 12.6762 35.5004 12.7556 35.8161C12.871 36.2931 13.0008 36.7701 13.1235 37.2541C13.1812 37.4856 13.2389 37.7101 13.2894 37.9416C13.4481 38.622 13.5923 39.3094 13.7582 39.9829C13.8953 40.544 14.0035 41.1122 14.2126 41.6524C14.53 42.4591 15.1936 42.9501 16.1674 43.0694C16.3838 43.0974 16.6074 43.0904 16.8238 43.0904C23.9287 43.0904 31.0264 43.0904 38.1313 43.0904C38.6867 43.0904 39.2494 43.1115 39.7903 43.2027C40.793 43.371 41.7307 43.6937 42.5818 44.2058C43.4835 44.7459 44.2192 45.4264 44.7818 46.2541C45.1785 46.8363 45.4815 47.4536 45.6402 48.12C45.734 48.5129 45.7989 48.9057 45.8349 49.3055C45.8566 49.523 45.8061 49.7475 45.7844 49.9719H47.5228V49.986Z" fill="white"/>
</svg>
