<svg width="81" height="45" viewBox="0 0 81 45" fill="none" xmlns="http://www.w3.org/2000/svg">
<path d="M73.8625 39.7878C72.4865 39.7878 71.2785 39.5318 70.2385 39.0198C69.1985 38.4918 68.3825 37.7638 67.7905 36.8358C67.2145 35.8918 66.9265 34.8118 66.9265 33.5958C66.9265 32.3958 67.2065 31.3318 67.7665 30.4038C68.3425 29.4758 69.1265 28.7478 70.1185 28.2198C71.1105 27.6758 72.2305 27.4038 73.4785 27.4038C74.7105 27.4038 75.7985 27.6598 76.7425 28.1718C77.6865 28.6678 78.4225 29.3638 78.9505 30.2598C79.4945 31.1558 79.7665 32.1798 79.7665 33.3318C79.7665 33.5718 79.7505 33.8278 79.7185 34.0998C79.7025 34.3558 79.6545 34.6598 79.5745 35.0118L68.9185 35.0838V32.2038L77.8225 32.1318L75.6385 33.4038C75.6385 32.7638 75.5585 32.2438 75.3985 31.8438C75.2545 31.4278 75.0305 31.1158 74.7265 30.9078C74.4225 30.6998 74.0385 30.5958 73.5745 30.5958C73.0945 30.5958 72.6785 30.7158 72.3265 30.9558C71.9745 31.1958 71.7025 31.5398 71.5105 31.9878C71.3345 32.4358 71.2465 32.9798 71.2465 33.6198C71.2465 34.2758 71.3425 34.8278 71.5345 35.2758C71.7425 35.7078 72.0385 36.0358 72.4225 36.2598C72.8065 36.4838 73.2865 36.5958 73.8625 36.5958C74.4225 36.5958 74.9105 36.5078 75.3265 36.3318C75.7585 36.1398 76.1505 35.8438 76.5025 35.4438L78.8545 37.7718C78.2625 38.4438 77.5505 38.9478 76.7185 39.2838C75.8865 39.6198 74.9345 39.7878 73.8625 39.7878Z" fill="white"/>
<path d="M58.6394 44.9238C57.3114 44.9238 56.1354 44.6998 55.1114 44.2518C54.0874 43.8198 53.2954 43.2038 52.7354 42.4038L55.5194 39.6438C55.8874 40.0438 56.2954 40.3558 56.7434 40.5798C57.1914 40.8198 57.7354 40.9398 58.3754 40.9398C59.1434 40.9398 59.7434 40.7558 60.1754 40.3878C60.6234 40.0198 60.8474 39.4838 60.8474 38.7798V35.6598L61.6154 33.1158L60.9674 30.5958V27.6918H65.5514V38.5878C65.5514 39.8838 65.2474 41.0038 64.6394 41.9478C64.0314 42.8918 63.2074 43.6198 62.1674 44.1318C61.1274 44.6598 59.9514 44.9238 58.6394 44.9238ZM58.4234 39.0198C57.3194 39.0198 56.3434 38.7638 55.4954 38.2518C54.6474 37.7398 53.9834 37.0438 53.5034 36.1638C53.0234 35.2838 52.7834 34.3078 52.7834 33.2358C52.7834 32.1478 53.0234 31.1718 53.5034 30.3078C53.9834 29.4278 54.6474 28.7318 55.4954 28.2198C56.3434 27.7078 57.3194 27.4518 58.4234 27.4518C59.1114 27.4518 59.7434 27.5718 60.3194 27.8118C60.9114 28.0358 61.3994 28.3558 61.7834 28.7718C62.1834 29.1878 62.4394 29.6678 62.5514 30.2118V36.2598C62.4394 36.8038 62.1834 37.2838 61.7834 37.6998C61.3994 38.1158 60.9114 38.4438 60.3194 38.6838C59.7434 38.9078 59.1114 39.0198 58.4234 39.0198ZM59.2874 35.0118C59.6714 35.0118 59.9994 34.9238 60.2714 34.7478C60.5434 34.5718 60.7514 34.3478 60.8954 34.0758C61.0394 33.8038 61.1114 33.5158 61.1114 33.2118C61.1114 32.9078 61.0394 32.6198 60.8954 32.3478C60.7514 32.0758 60.5434 31.8518 60.2714 31.6758C60.0154 31.4998 59.6954 31.4118 59.3114 31.4118C58.9434 31.4118 58.6234 31.4998 58.3514 31.6758C58.0794 31.8518 57.8714 32.0838 57.7274 32.3718C57.5834 32.6438 57.5114 32.9238 57.5114 33.2118C57.5114 33.4838 57.5834 33.7638 57.7274 34.0518C57.8714 34.3238 58.0714 34.5558 58.3274 34.7478C58.5994 34.9238 58.9194 35.0118 59.2874 35.0118Z" fill="white"/>
<path d="M46.9208 39.4998V32.8758C46.9208 32.4118 46.7848 32.0598 46.5128 31.8198C46.2568 31.5638 45.9288 31.4358 45.5288 31.4358C45.2568 31.4358 45.0088 31.4918 44.7848 31.6038C44.5768 31.7158 44.4088 31.8838 44.2808 32.1078C44.1688 32.3158 44.1128 32.5718 44.1128 32.8758L42.2888 32.0598C42.2888 31.0998 42.4968 30.2758 42.9128 29.5878C43.3448 28.8998 43.9288 28.3718 44.6648 28.0038C45.4168 27.6358 46.2648 27.4518 47.2088 27.4518C48.0568 27.4518 48.8088 27.6438 49.4648 28.0278C50.1368 28.3958 50.6648 28.9078 51.0488 29.5638C51.4328 30.2038 51.6248 30.9478 51.6248 31.7958V39.4998H46.9208ZM39.4088 39.4998V27.6918H44.1128V39.4998H39.4088Z" fill="white"/>
<path d="M29.7404 39.7398C28.6364 39.7398 27.6604 39.4758 26.8124 38.9478C25.9644 38.4198 25.3004 37.6998 24.8204 36.7878C24.3404 35.8598 24.1004 34.7958 24.1004 33.5958C24.1004 32.3958 24.3404 31.3318 24.8204 30.4038C25.3004 29.4758 25.9644 28.7558 26.8124 28.2438C27.6604 27.7158 28.6364 27.4518 29.7404 27.4518C30.4284 27.4518 31.0604 27.5718 31.6364 27.8118C32.2284 28.0358 32.7164 28.3558 33.1004 28.7718C33.5004 29.1878 33.7564 29.6678 33.8684 30.2118V36.9798C33.7564 37.5238 33.5004 38.0038 33.1004 38.4198C32.7164 38.8358 32.2284 39.1638 31.6364 39.4038C31.0604 39.6278 30.4284 39.7398 29.7404 39.7398ZM30.7964 35.6118C31.3884 35.6118 31.8604 35.4278 32.2124 35.0598C32.5804 34.6758 32.7644 34.1878 32.7644 33.5958C32.7644 33.1958 32.6844 32.8518 32.5244 32.5638C32.3644 32.2598 32.1324 32.0198 31.8284 31.8438C31.5404 31.6678 31.2044 31.5798 30.8204 31.5798C30.4364 31.5798 30.0924 31.6678 29.7884 31.8438C29.5004 32.0198 29.2684 32.2598 29.0924 32.5638C28.9164 32.8678 28.8284 33.2118 28.8284 33.5958C28.8284 33.9798 28.9084 34.3238 29.0684 34.6278C29.2444 34.9318 29.4844 35.1718 29.7884 35.3478C30.0924 35.5238 30.4284 35.6118 30.7964 35.6118ZM32.6204 39.4998V36.3318L33.2684 33.4518L32.6204 30.5958V27.6918H37.2044V39.4998H32.6204Z" fill="white"/>
<path d="M14.521 39.4998V27.6918H19.225V39.4998H14.521ZM19.225 33.1158L17.041 31.1718C17.649 29.8918 18.353 28.9558 19.153 28.3638C19.969 27.7558 20.985 27.4518 22.201 27.4518C22.745 27.4518 23.209 27.5158 23.593 27.6438C23.993 27.7718 24.313 27.9558 24.553 28.1958L21.913 31.9398C21.801 31.8118 21.633 31.7078 21.409 31.6278C21.201 31.5318 20.953 31.4838 20.665 31.4838C20.185 31.4838 19.825 31.6278 19.585 31.9158C19.345 32.1878 19.225 32.5878 19.225 33.1158Z" fill="white"/>
<path d="M3.78042 26.4233C4.67733 26.0158 5.6722 25.789 6.71951 25.789C7.32526 25.789 7.91347 25.8649 8.47533 26.0077C8.74877 26.0628 9.01926 26.1326 9.28563 26.2169C9.77126 21.2658 10.2563 16.3149 10.7406 11.3644C10.8802 9.94025 11.0198 8.49499 10.7976 7.08137C10.5754 5.66776 9.94284 4.26662 8.825 3.45527C8.58852 3.28361 8.3036 3.13496 8.02343 3.20113C7.80024 3.25388 7.62549 3.43226 7.46593 3.6068C2.02394 9.5528 0.262182 18.5677 3.65464 26.1508C3.69552 26.2419 3.73744 26.333 3.78042 26.4233Z" fill="#EB343A"/>
<path d="M3.78042 26.4233C4.67733 26.0158 5.6722 25.789 6.71951 25.789C7.32526 25.789 7.91347 25.8649 8.47533 26.0077C8.74877 26.0628 9.01926 26.1326 9.28563 26.2169C9.77126 21.2658 10.2563 16.3149 10.7406 11.3644C10.8802 9.94025 11.0198 8.49499 10.7976 7.08137C10.5754 5.66776 9.94284 4.26662 8.825 3.45527C8.58852 3.28361 8.3036 3.13496 8.02343 3.20113C7.80024 3.25388 7.62549 3.43226 7.46593 3.6068C2.02394 9.5528 0.262182 18.5677 3.65464 26.1508C3.69552 26.2419 3.73744 26.333 3.78042 26.4233Z" fill="black" fill-opacity="0.16"/>
<path d="M9.83442 10.689C12.4899 6.48845 17.4817 2.58903 22.1582 1.34229C23.1364 1.08143 23.2124 6.70903 23.163 7.15786C22.8363 10.2047 21.7868 13.1355 20.385 15.8074C19.0383 18.3785 17.3696 20.7272 15.6278 23.0049L15.6169 23.0192C14.3355 24.6955 13.0244 26.4108 11.1946 27.3717C9.96794 26.3811 8.41215 25.7888 6.71935 25.7888C6.26192 25.7888 5.81449 25.8321 5.38086 25.9147C5.88621 20.7077 7.05036 15.0923 9.83442 10.689Z" fill="#EB343A"/>
<path d="M9.83442 10.689C12.4899 6.48845 17.4817 2.58903 22.1582 1.34229C23.1364 1.08143 23.2124 6.70903 23.163 7.15786C22.8363 10.2047 21.7868 13.1355 20.385 15.8074C19.0383 18.3785 17.3696 20.7272 15.6278 23.0049L15.6169 23.0192C14.3355 24.6955 13.0244 26.4108 11.1946 27.3717C9.96794 26.3811 8.41215 25.7888 6.71935 25.7888C6.26192 25.7888 5.81449 25.8321 5.38086 25.9147C5.88621 20.7077 7.05036 15.0923 9.83442 10.689Z" fill="black" fill-opacity="0.08"/>
<path d="M6.72049 38.8333C9.89439 38.8333 12.4673 36.2351 12.4673 33.0301C12.4673 29.8252 9.89439 27.2271 6.72049 27.2271C3.54659 27.2271 0.973633 29.8252 0.973633 33.0301C0.973633 36.2351 3.54659 38.8333 6.72049 38.8333Z" fill="white"/>
<path d="M29.4312 8.41966C24.6198 8.30362 18.8416 10.6427 15.2326 13.9312C11.8248 17.0357 9.43412 21.4548 7.68164 25.8532C9.85936 26.1482 11.7275 27.4302 12.8301 29.239V26.9421C12.8301 26.3899 13.2778 25.9421 13.8301 25.9421H19.5731C21.1608 24.6701 22.6929 23.3209 24.0908 21.8173C26.11 19.6451 27.8556 17.1238 28.9345 14.2851C29.0959 13.8708 30.437 8.44364 29.4312 8.41966Z" fill="#EB343A"/>
<path d="M27.7115 18.6404C24.3684 17.4962 19.8648 17.8539 16.6946 19.3548C13.6494 20.7947 11.071 23.4141 8.95752 26.1484C10.5816 26.6867 11.9498 27.7949 12.8301 29.2388V26.9421C12.8301 26.3899 13.2778 25.9421 13.8301 25.9421H20.1747C20.2603 25.9421 20.3454 25.9308 20.4286 25.9107C21.0136 25.7691 21.6269 25.7021 22.2601 25.7021C22.5101 25.7021 22.7587 25.7129 23.004 25.737C24.2033 24.8633 25.3032 23.8349 26.2119 22.6309C26.3999 22.3777 28.4096 18.8801 27.7115 18.6404Z" fill="#EB343A"/>
<path d="M27.7115 18.6404C24.3684 17.4962 19.8648 17.8539 16.6946 19.3548C13.6494 20.7947 11.071 23.4141 8.95752 26.1484C10.5816 26.6867 11.9498 27.7949 12.8301 29.2388V26.9421C12.8301 26.3899 13.2778 25.9421 13.8301 25.9421H20.1747C20.2603 25.9421 20.3454 25.9308 20.4286 25.9107C21.0136 25.7691 21.6269 25.7021 22.2601 25.7021C22.5101 25.7021 22.7587 25.7129 23.004 25.737C24.2033 24.8633 25.3032 23.8349 26.2119 22.6309C26.3999 22.3777 28.4096 18.8801 27.7115 18.6404Z" fill="white" fill-opacity="0.08"/>
</svg>
