<svg width="96" height="96" viewBox="0 0 96 96" fill="none" xmlns="http://www.w3.org/2000/svg">
<path d="M48 15C66.225 15 81 29.775 81 48C81 66.225 66.225 81 48 81C29.775 81 15 66.225 15 48C15 29.775 29.775 15 48 15ZM54.1035 59.571L42.2595 48.0135L54.132 36.429C55.3185 35.2725 55.3425 33.372 54.1845 32.187C53.028 31.0005 51.1275 30.9795 49.9425 32.1345L35.868 45.8655C35.289 46.4295 34.962 47.205 34.962 48.0135C34.962 48.822 35.289 49.596 35.868 50.1615L49.914 63.867C50.4975 64.4355 51.2535 64.719 52.008 64.719C52.788 64.719 53.568 64.416 54.156 63.813C55.314 62.6265 55.29 60.7275 54.1035 59.571Z" fill="white"/>
</svg>
