<svg width="96" height="96" viewBox="0 0 96 96" fill="none" xmlns="http://www.w3.org/2000/svg">
<path d="M48 15C29.775 15 15 29.775 15 48C15 66.225 29.775 81 48 81C66.225 81 81 66.225 81 48C81 29.775 66.225 15 48 15ZM48 21C62.9115 21 75 33.0885 75 48C75 62.9115 62.9115 75 48 75C33.0885 75 21 62.9115 21 48C21 33.0885 33.0885 21 48 21ZM52.0752 31.2832C51.3072 31.274 50.5371 31.5582 49.9453 32.1357L35.8682 45.8643C35.2892 46.4298 34.9629 47.2061 34.9629 48.0146C34.9629 48.8231 35.2892 49.5981 35.8682 50.1621L49.916 63.8672C50.498 64.4357 51.2547 64.7197 52.0107 64.7197C52.7892 64.7197 53.5702 64.4175 54.1582 63.8145C55.3162 62.6295 55.292 60.7288 54.1055 59.5723L42.2607 48.0146L54.1348 36.4277C55.3213 35.2712 55.3411 33.372 54.1846 32.1855C53.6063 31.5923 52.8432 31.2924 52.0752 31.2832Z" fill="white"/>
</svg>
