<svg width="96" height="96" viewBox="0 0 96 96" fill="none" xmlns="http://www.w3.org/2000/svg">
<path d="M48 15C66.225 15 81 29.775 81 48C81 66.225 66.225 81 48 81C29.775 81 15 66.225 15 48C15 29.775 29.775 15 48 15ZM62.037 51C63.693 51 65.037 49.656 65.037 48C65.037 46.344 63.693 45 62.037 45H41.043L46.284 39.5865C47.4375 38.397 47.406 36.4965 46.2165 35.3445C45.024 34.191 43.1235 34.221 41.9745 35.4135L31.8075 45.9135C30.681 47.076 30.681 48.924 31.8075 50.0865L41.9745 60.5865C42.5625 61.194 43.3455 61.5 44.13 61.5C44.8815 61.5 45.6345 61.2195 46.218 60.6555C47.4075 59.502 47.4375 57.603 46.2855 56.4135L41.043 51H62.037Z" fill="white"/>
</svg>
