<svg width="48" height="48" viewBox="0 0 48 48" fill="none" xmlns="http://www.w3.org/2000/svg">
<g clip-path="url(#clip0_14012_3185)">
<path d="M4.39064 12.181C3.68647 12.639 3.48133 13.5775 3.93161 14.2866L5.58402 16.8904L17.642 9.04803L15.9705 6.47806C15.5088 5.76811 14.5598 5.56708 13.8498 6.02882L4.39064 12.181ZM6.81504 18.8326L12.0044 27.0091C16.5388 25.361 20.7364 26.6346 23.831 30.6223L36.4098 22.4412L32.5885 16.5659C31.3456 17.0488 30.2217 17.372 29.2022 17.5505L29.3154 19.2126C29.3443 19.6436 29.1322 20.0353 28.7949 20.2547C28.6356 20.3583 28.45 20.4237 28.2477 20.4374C27.6137 20.4803 27.0659 20.0009 27.0234 19.3676L26.9117 17.7242C26.2131 17.6904 25.5782 17.564 24.9883 17.3698L24.1659 19.0101C24.0715 19.1995 23.9313 19.3519 23.7655 19.4597C23.4346 19.6749 23.0007 19.7147 22.6221 19.5248C22.0548 19.2401 21.8247 18.5489 22.1094 17.9815L22.9612 16.2847C22.4177 15.8638 21.9209 15.363 21.4618 14.7921L20.1179 15.6662C19.5859 16.0122 18.8737 15.8619 18.5273 15.3292C18.1809 14.7966 18.3323 14.0847 18.8642 13.7387L20.1492 12.903L18.8956 10.9755L6.81504 18.8326ZM13.1101 29.0578C13.1482 30.0231 13.4176 33.1254 15.2252 36.2195L21.8922 31.8833C19.5281 28.9483 16.4825 27.9706 13.1101 29.0578ZM34.7641 15.6938L38.3372 21.1876L43.4646 17.8528C40.8779 14.13 38.9375 14.0683 34.7641 15.6938ZM16.4612 38.1584L18.1327 40.7283C18.5944 41.4383 19.5435 41.6393 20.2534 41.1776L27.3208 36.581C27.6755 36.3503 27.7761 35.8753 27.5454 35.5206L27.1275 34.8781L33.5524 30.6994L34.6228 31.3265C34.873 31.4737 35.1837 31.467 35.4272 31.3086L36.3157 30.7308L38.0499 27.7744L39.1202 28.4014C39.3704 28.5486 39.6811 28.5419 39.9246 28.3836L40.8131 27.8057L42.5473 24.8493L43.6176 25.4763C43.8679 25.6235 44.1786 25.6168 44.4221 25.4585L45.953 24.4628C46.663 24.001 46.864 23.052 46.4023 22.342L44.7308 19.7721L16.4612 38.1584Z" fill="white"/>
</g>
<defs>
<clipPath id="clip0_14012_3185">
<rect width="48" height="48" fill="white"/>
</clipPath>
</defs>
</svg>
