<svg width="32" height="32" viewBox="0 0 32 32" fill="none" xmlns="http://www.w3.org/2000/svg">
<path d="M16 5C22.075 5 27 9.925 27 16C27 22.075 22.075 27 16 27C9.925 27 5 22.075 5 16C5 9.925 9.925 5 16 5ZM21.271 18.5615C21.6665 18.176 21.6735 17.542 21.2885 17.1475L16.7115 12.456C16.5235 12.263 16.265 12.154 15.9955 12.154C15.726 12.154 15.468 12.263 15.2795 12.456L10.711 17.138C10.5215 17.3325 10.427 17.5845 10.427 17.836C10.427 18.096 10.528 18.356 10.729 18.552C11.1245 18.9375 11.7575 18.93 12.143 18.5345L15.9955 14.5865L19.857 18.544C20.2425 18.9395 20.8755 18.9475 21.271 18.5615Z" fill="white"/>
</svg>
