<svg xmlns="http://www.w3.org/2000/svg" xmlns:xlink="http://www.w3.org/1999/xlink" viewBox="0,0,256,256" width="48px" height="48px" fill-rule="nonzero"><g fill="#ffffff" fill-rule="nonzero" stroke="none" stroke-width="1" stroke-linecap="butt" stroke-linejoin="miter" stroke-miterlimit="10" stroke-dasharray="" stroke-dashoffset="0" font-family="none" font-weight="none" font-size="none" text-anchor="none" style="mix-blend-mode: normal"><g transform="scale(4,4)"><path d="M48.584,16.847c0,0 7.416,8.589 7.416,24.061v3.244c0,0 -9.366,6.103 -12.22,6.103l-2.769,-4.026c1.721,-0.771 4.068,-2.109 4.068,-2.109l-0.858,-0.664c0,0 -5.487,2.542 -12.221,2.542c-6.734,0 -12.221,-2.542 -12.221,-2.542l-0.858,0.664c0,0 2.347,1.338 4.068,2.109l-2.769,4.026c-2.854,0 -12.22,-6.103 -12.22,-6.103v-3.244c0,-15.472 7.416,-24.061 7.416,-24.061c0,0 5.073,-2.456 9.757,-3.102l1.454,2.755c0,0 2.31,-0.535 5.373,-0.535c3.063,0 5.373,0.535 5.373,0.535l1.453,-2.755c4.685,0.646 9.758,3.102 9.758,3.102zM24.009,38.647c2.36,0 4.274,-2.149 4.274,-4.801c0,-2.651 -1.913,-4.801 -4.274,-4.801c-2.361,0 -4.274,2.149 -4.274,4.801c0,2.652 1.913,4.801 4.274,4.801zM39.991,38.647c2.36,0 4.274,-2.149 4.274,-4.801c0,-2.651 -1.914,-4.801 -4.274,-4.801c-2.36,0 -4.274,2.149 -4.274,4.801c0,2.652 1.914,4.801 4.274,4.801z"></path></g></g></svg>