<svg width="96" height="96" viewBox="0 0 96 96" fill="none" xmlns="http://www.w3.org/2000/svg">
<path d="M48 15C66.225 15 81 29.775 81 48C81 66.225 66.225 81 48 81C29.775 81 15 66.225 15 48C15 29.775 29.775 15 48 15ZM60.588 54.0255C61.1955 53.4375 61.5 52.6545 61.5 51.87C61.5 51.1185 61.2195 50.3655 60.6555 49.782C59.502 48.5925 57.603 48.5625 56.4135 49.7145L51 54.957V33.963C51 32.307 49.656 30.963 48 30.963C46.344 30.963 45 32.307 45 33.963V54.957L39.5865 49.716C38.397 48.5625 36.4965 48.594 35.3445 49.7835C34.191 50.976 34.221 52.8765 35.4135 54.0255L45.9135 64.1925C47.076 65.319 48.924 65.319 50.0865 64.1925L60.588 54.0255Z" fill="white"/>
</svg>
