<svg width="48" height="48" viewBox="0 0 48 48" fill="none" xmlns="http://www.w3.org/2000/svg">
<g clip-path="url(#clip0_18038_545)">
<path d="M42.24 8.64001C40.3387 8.64001 38.5687 9.58126 37.5 11.16C36.8887 12.0563 36.4462 13.0163 36.0187 13.9463C35.7412 14.5538 35.475 15.1238 35.175 15.6563C35.145 15.7125 31.9275 21.12 24.96 21.12C24.1762 21.12 22.395 20.5688 21.4537 20.22C21.27 20.1525 21.0675 20.1413 20.8762 20.19C19.6837 20.505 16.8 21.2813 15.36 22.08C15.7537 21.5363 17.3212 20.3475 17.835 19.98C18.2137 19.71 18.345 19.2113 18.15 18.7913C17.9512 18.3713 17.4825 18.1538 17.0325 18.27L16.8375 18.3263C15.3825 18.705 11.985 19.6013 9.44998 22.2563C13.1025 25.1438 17.4562 27.84 23.04 27.84C32.4 27.84 37.7512 24.7725 40.3837 17.895C40.575 17.4 41.13 17.1563 41.625 17.3438C42.12 17.5313 42.3675 18.0863 42.1762 18.585C39.2587 26.2088 33.1762 29.76 23.04 29.76C17.3812 29.76 12.8325 27.1988 9.20998 24.4838C9.15373 24.4125 9.08998 24.3488 9.01498 24.2963C4.17373 20.8763 1.78873 16.7963 1.78873 16.7963C1.61248 16.4813 1.27123 16.2938 0.911227 16.3088C0.573726 16.3238 0.266227 16.515 0.108726 16.815C-0.0525234 17.1113 -0.0450234 17.475 0.131227 17.7638C0.131227 17.7638 1.97248 20.8838 5.61748 24.0488C5.03998 25.26 3.95623 28.365 5.86498 32.115C6.01123 32.4338 6.32248 32.6513 6.67498 32.6738C7.02373 32.6963 7.36123 32.5238 7.54873 32.2275C7.73623 31.9275 7.74748 31.5525 7.57498 31.245C6.15748 28.4588 6.68248 26.325 7.13248 25.275C7.33123 25.425 7.51498 25.575 7.72123 25.725C8.15248 33.7613 15.2662 38.7338 21.99 39.3563C22.02 39.36 22.05 39.36 22.08 39.36C22.4512 39.36 22.7887 39.1463 22.95 38.8088C23.1 38.4863 23.0587 38.1113 22.8525 37.83C22.7662 37.6688 21.39 35.235 21.12 34.56C22.4812 36.3188 26.2425 39.135 26.3737 39.2175C26.5575 39.33 26.7712 39.375 26.985 39.3563C36.6787 38.2838 48 31.1063 48 14.4C48 11.2238 45.4162 8.64001 42.24 8.64001Z" fill="white"/>
</g>
<defs>
<clipPath id="clip0_18038_545">
<rect width="48" height="48" fill="white"/>
</clipPath>
</defs>
</svg>
