<svg width="48" height="48" viewBox="0 0 48 48" fill="none" xmlns="http://www.w3.org/2000/svg">
<path d="M10.2338 14.9007C8.50613 17.5091 7.5 20.6371 7.5 24C7.5 33.1125 14.8875 40.5 24 40.5C27.3629 40.5 30.4909 39.4939 33.0993 37.7662L22.3331 27H15.75C15.336 27 15 26.664 15 26.25V21.75C15 21.336 15.336 21 15.75 21H16.3331L10.2338 14.9007Z" fill="white"/>
<path d="M31.6669 27H32.25C32.664 27 33 26.664 33 26.25V21.75C33 21.336 32.664 21 32.25 21H25.6669L14.9007 10.2338C17.5091 8.50613 20.6371 7.5 24 7.5C33.1125 7.5 40.5 14.8875 40.5 24C40.5 27.3629 39.4939 30.4909 37.7662 33.0993L31.6669 27Z" fill="white"/>
<path fill-rule="evenodd" clip-rule="evenodd" d="M8.38057 8.38081C8.88825 7.87313 9.71136 7.87313 10.219 8.38081L39.219 37.3808C39.7267 37.8885 39.7267 38.7116 39.219 39.2193C38.7114 39.727 37.8882 39.727 37.3806 39.2193L8.38057 10.2193C7.87288 9.71161 7.87288 8.88849 8.38057 8.38081Z" fill="white"/>
</svg>
