<svg width="48" height="48" viewBox="0 0 48 48" fill="none" xmlns="http://www.w3.org/2000/svg">
<path d="M23.8655 19.2691C23.8916 19.0983 23.9135 18.9253 23.9312 18.75H25.5C26.121 18.75 26.625 18.2467 26.625 17.625C26.625 17.0033 26.121 16.5 25.5 16.5H24V14.25H38.1021L38.2075 23.7261C35.579 24.336 33.55 25.6703 32.217 27.6206L23.8655 19.2691Z" fill="white"/>
<path d="M28.404 33L21.8635 26.4594C21.7693 26.6813 21.6034 26.8748 21.3765 27.0015C21.2032 27.0982 21.0161 27.1436 20.8301 27.1436C20.4363 27.1436 20.0534 26.9354 19.8472 26.5664L19.0532 25.1426C18.1217 25.5401 17.0273 25.8746 15.75 26.1416V33H28.404Z" fill="white"/>
<path d="M33.8648 29.2683L37.5964 33H40.4795C40.3115 29.4975 38.8773 26.8088 38.3936 25.9966C36.3615 26.5476 34.8345 27.6589 33.8648 29.2683Z" fill="white"/>
<path d="M39.8464 35.25L40.5 35.9036V35.25H39.8464Z" fill="white"/>
<path d="M35.154 39.75L30.654 35.25H7.5V38.25C7.5 39.0788 8.17125 39.75 9 39.75H10.7871C11.0714 39.75 11.3298 39.5897 11.4565 39.3354L12 38.25L15 39.75H16.0371C16.3214 39.75 16.5798 39.5897 16.7065 39.3354L17.25 38.25L20.25 39.75H21.2871C21.5714 39.75 21.8298 39.5897 21.9565 39.3354L22.5 38.25H30V39C30 39.414 30.336 39.75 30.75 39.75H35.154Z" fill="white"/>
<path d="M38.042 8.98242C38.033 8.16042 37.364 7.5 36.542 7.5H25.5C24.6713 7.5 24 8.17125 24 9V12H38.0757L38.042 8.98242Z" fill="white"/>
<path d="M13.5 33V26.5869C9.20925 27.4802 7.6504 28.566 7.51465 33H13.5Z" fill="white"/>
<path fill-rule="evenodd" clip-rule="evenodd" d="M8.81631 8.81607C9.30447 8.32791 10.0959 8.32791 10.5841 8.81607L39.0841 37.3161C39.5722 37.8042 39.5722 38.5957 39.0841 39.0838C38.5959 39.572 37.8045 39.572 37.3163 39.0838L8.81631 10.5838C8.32816 10.0957 8.32816 9.30422 8.81631 8.81607Z" fill="white"/>
</svg>
